<?xml version="1.0" encoding="utf-8"?>
<svg version="1.1" xmlns:xlink="http://www.w3.org/1999/xlink" width="12px" height="12px" viewBox="286 1052.5  12 12" xmlns="http://www.w3.org/2000/svg">
  <path d="M 292 1052.5  C 295.36 1052.5  298 1055.14  298 1058.5  C 298 1061.86  295.36 1064.5  292 1064.5  C 288.64 1064.5  286 1061.86  286 1058.5  C 286 1055.14  288.64 1052.5  292 1052.5  Z " fill-rule="nonzero" fill="#ffffff" stroke="none" />
  <path d="M 292 1053  C 295.08 1053  297.5 1055.42  297.5 1058.5  C 297.5 1061.58  295.08 1064  292 1064  C 288.92 1064  286.5 1061.58  286.5 1058.5  C 286.5 1055.42  288.92 1053  292 1053  Z " stroke-width="1" stroke="#797979" fill="none" />
  <path d="M 292 1061.5  C 290.32 1061.5  289 1060.18  289 1058.5  C 289 1056.82  290.32 1055.5  292 1055.5  C 293.68 1055.5  295 1056.82  295 1058.5  C 295 1060.18  293.68 1061.5  292 1061.5  " fill-rule="nonzero" fill="#797979" stroke="none" />
</svg>