<?xml version="1.0" encoding="utf-8"?>
<svg version="1.1" xmlns:xlink="http://www.w3.org/1999/xlink" width="26px" height="26px" xmlns="http://www.w3.org/2000/svg">
  <g transform="matrix(1 0 0 1 -994 -412 )">
    <path d="M 25.9261363636364 13  C 25.9261363636364 5.86177201704546  20.1382279829545 0.0738636363636364  13 0.0738636363636364  C 5.86177201704546 0.0738636363636364  0.0738636363636364 5.86177201704546  0.0738636363636364 13  C 0.0738636363636364 20.1382279829545  5.86177201704546 25.9261363636364  13 25.9261363636364  C 20.1382279829545 25.9261363636364  25.9261363636364 20.1382279829545  25.9261363636364 13  Z M 15.4236505681818 9.97043678977273  L 15.4236505681818 9.97332208806818  L 12.9134410511364 18.6696111505682  C 12.7749467329545 19.1658824573864  12.7056995738636 19.4948064630682  12.7056995738636 19.6477272727273  C 12.7056995738636 19.7371715198864  12.7432084517045 19.8208451704545  12.8153409090909 19.8987482244318  C 12.8874733664773 19.9766512784091  12.9653764204545 20.01416015625  13.0490500710227 20.01416015625  C 13.1875443892045 20.01416015625  13.3260387073864 19.9535688920455  13.4645330255682 19.8295010653409  C 13.8309659090909 19.5265447443182  14.2724165482955 18.9812233664773  14.7859996448864 18.1906516335227  L 15.2014825994318 18.4359019886364  C 13.9694602272727 20.5825639204545  12.6624200994318 21.6558948863636  11.2745916193182 21.6558948863636  C 10.7436967329545 21.6558948863636  10.3224431818182 21.505859375  10.0079456676136 21.2086736505682  C 9.69344815340909 20.9114879261364  9.53764204545454 20.5335138494318  9.53764204545454 20.07763671875  C 9.53764204545454 19.7746803977273  9.60688920454545 19.3938210227273  9.74538352272727 18.9264026988636  L 11.44482421875 13.0779030539773  C 11.6092862215909 12.5152698863636  11.6900745738636 12.0911310369318  11.6900745738636 11.8054865056818  C 11.6900745738636 11.6265980113636  11.6121715198864 11.4679066051136  11.4563654119318 11.3294122869318  C 11.3005593039773 11.19091796875  11.0899325284091 11.1216708096591  10.8215997869318 11.1216708096591  C 10.7004172585227 11.1216708096591  10.5532670454545 11.1245561079545  10.3801491477273 11.1332120028409  L 10.5388405539773 10.6427112926136  L 14.6850142045455 9.97043678977273  L 15.4236505681818 9.97043678977273  Z M 16.4623579545455 6.14164595170455  C 16.4623579545455 6.63791725852273  16.2863547585227 7.06205610795455  15.9372336647727 7.4140625  C 15.5852272727273 7.76606889204546  15.1610884232955 7.93918678977273  14.6648171164773 7.93918678977273  C 14.17431640625 7.93918678977273  13.7559481534091 7.76318359375  13.4039417613636 7.4140625  C 13.0519353693182 7.06205610795455  12.8788174715909 6.63791725852273  12.8788174715909 6.14164595170455  C 12.8788174715909 5.64537464488636  13.0519353693182 5.22123579545455  13.3981711647727 4.86922940340909  C 13.7444069602273 4.52010830965909  14.1656605113636 4.34410511363636  14.6648171164773 4.34410511363636  C 15.1697443181818 4.34410511363636  15.5967684659091 4.52010830965909  15.9430042613636 4.86922940340909  C 16.2892400568182 5.22123579545455  16.4623579545455 5.64537464488636  16.4623579545455 6.14164595170455  Z " fill-rule="nonzero" fill="#7f7f7f" stroke="none" transform="matrix(1 0 0 1 994 412 )" />
  </g>
</svg>