<?xml version="1.0" encoding="utf-8"?>
<svg version="1.1" xmlns:xlink="http://www.w3.org/1999/xlink" width="9px" height="9px" xmlns="http://www.w3.org/2000/svg">
  <g transform="matrix(1 0 0 1 -1242 -410 )">
    <path d="M 8.69754098360656 8.75454545454546  C 8.45409836065574 9.00743801652893  8.21065573770492 9.08181818181818  8.02622950819672 8.89586776859504  L 4.5 5.3404958677686  L 0.981147540983607 8.88842975206612  C 0.79672131147541 9.07438016528926  0.568032786885246 8.99256198347107  0.324590163934427 8.74710743801653  C 0.0811475409836067 8.50165289256199  -0.00737704918032745 8.27107438016529  0.184426229508197 8.08512396694215  L 3.70327868852459 4.53719008264463  L 0.177049180327869 0.981818181818182  C -0.0368852459016399 0.758677685950413  0.0885245901639341 0.542975206611571  0.302459016393443 0.319834710743802  C 0.545901639344262 0.0743801652892562  0.745081967213115 -0.052066115702479  0.973770491803279 0.17107438016529  L 4.5 3.73388429752066  L 8.02622950819672 0.18595041322314  C 8.2327868852459 -0.0223140495867772  8.43934426229508 0.0818181818181814  8.70491803278689 0.349586776859504  C 8.92622950819672 0.572727272727272  9.04426229508197 0.766115702479339  8.82295081967213 0.989256198347108  L 5.29672131147541 4.53719008264463  L 8.8155737704918 8.08512396694215  C 9.03688524590164 8.30826446280992  8.94098360655738 8.50165289256199  8.69754098360656 8.75454545454546  Z " fill-rule="nonzero" fill="#7f7f7f" stroke="none" transform="matrix(1 0 0 1 1242 410 )" />
  </g>
</svg>