<?xml version="1.0" encoding="utf-8"?>
<svg version="1.1" xmlns:xlink="http://www.w3.org/1999/xlink" width="30px" height="30px" xmlns="http://www.w3.org/2000/svg">
  <g transform="matrix(1 0 0 1 -1230 -144 )">
    <path d="M 24.62890625 17.12890625  C 24.8763020833333 16.8815104166667  25 16.5885416666667  25 16.25  L 25 13.75  C 25 13.4114583333333  24.8763020833333 13.1184895833333  24.62890625 12.87109375  C 24.3815104166667 12.6236979166667  24.0885416666667 12.5  23.75 12.5  L 17.5 12.5  L 17.5 6.25  C 17.5 5.91145833333333  17.3763020833333 5.61848958333333  17.12890625 5.37109375  C 16.8815104166667 5.12369791666666  16.5885416666667 5  16.25 5  L 13.75 5  C 13.4114583333333 5  13.1184895833333 5.12369791666666  12.87109375 5.37109375  C 12.6236979166667 5.61848958333333  12.5 5.91145833333333  12.5 6.25  L 12.5 12.5  L 6.25 12.5  C 5.91145833333333 12.5  5.61848958333333 12.6236979166667  5.37109375 12.87109375  C 5.12369791666667 13.1184895833333  5 13.4114583333333  5 13.75  L 5 16.25  C 5 16.5885416666667  5.12369791666667 16.8815104166667  5.37109375 17.12890625  C 5.61848958333333 17.3763020833333  5.91145833333333 17.5  6.25 17.5  L 12.5 17.5  L 12.5 23.75  C 12.5 24.0885416666667  12.6236979166667 24.3815104166667  12.87109375 24.62890625  C 13.1184895833333 24.8763020833333  13.4114583333333 25  13.75 25  L 16.25 25  C 16.5885416666667 25  16.8815104166667 24.8763020833333  17.12890625 24.62890625  C 17.3763020833333 24.3815104166667  17.5 24.0885416666667  17.5 23.75  L 17.5 17.5  L 23.75 17.5  C 24.0885416666667 17.5  24.3815104166667 17.3763020833333  24.62890625 17.12890625  Z M 28.349609375 1.650390625  C 29.4498697916667 2.75065104166666  30 4.07552083333333  30 5.625  L 30 24.375  C 30 25.9244791666667  29.4498697916667 27.2493489583333  28.349609375 28.349609375  C 27.2493489583333 29.4498697916667  25.9244791666667 30  24.375 30  L 5.625 30  C 4.07552083333333 30  2.75065104166667 29.4498697916667  1.650390625 28.349609375  C 0.550130208333333 27.2493489583333  0 25.9244791666667  0 24.375  L 0 5.625  C 0 4.07552083333333  0.550130208333333 2.75065104166666  1.650390625 1.650390625  C 2.75065104166667 0.550130208333331  4.07552083333333 0  5.625 0  L 24.375 0  C 25.9244791666667 0  27.2493489583333 0.550130208333331  28.349609375 1.650390625  Z " fill-rule="nonzero" fill="#00bfbf" stroke="none" transform="matrix(1 0 0 1 1230 144 )" />
  </g>
</svg>