<?xml version="1.0" encoding="utf-8"?>
<svg version="1.1" xmlns:xlink="http://www.w3.org/1999/xlink" width="29px" height="30px" xmlns="http://www.w3.org/2000/svg">
  <g transform="matrix(1 0 0 1 -653 -385 )">
    <path d="M 17.1718426501035 26.813627254509  C 17.3719806763285 27.0140280561122  17.472049689441 27.2444889779559  17.472049689441 27.5050100200401  C 17.472049689441 27.7655310621243  17.3719806763285 27.9959919839679  17.1718426501035 28.1963927855711  L 15.6708074534161 29.6993987975952  C 15.4706694271912 29.8997995991984  15.2405106970324 30  14.98033126294 30  C 14.7201518288475 30  14.4899930986888 29.8997995991984  14.2898550724638 29.6993987975952  L 0.300207039337474 15.6913827655311  C 0.100069013112491 15.4909819639279  0 15.2605210420842  0 15  C 0 14.7394789579158  0.100069013112491 14.5090180360721  0.300207039337474 14.3086172344689  L 14.2898550724638 0.30060120240481  C 14.4899930986888 0.100200400801602  14.7201518288475 0  14.98033126294 0  C 15.2405106970324 0  15.4706694271912 0.100200400801602  15.6708074534161 0.30060120240481  L 17.1718426501035 1.80360721442886  C 17.3719806763285 2.00400801603206  17.472049689441 2.23446893787575  17.472049689441 2.49498997995992  C 17.472049689441 2.75551102204409  17.3719806763285 2.98597194388777  17.1718426501035 3.18637274549098  L 5.37370600414079 15  L 17.1718426501035 26.813627254509  Z M 28.6997929606625 26.813627254509  C 28.8999309868875 27.0140280561122  29 27.2444889779559  29 27.5050100200401  C 29 27.7655310621243  28.8999309868875 27.9959919839679  28.6997929606625 28.1963927855711  L 27.1987577639752 29.6993987975952  C 26.9986197377502 29.8997995991984  26.7684610075914 30  26.508281573499 30  C 26.2481021394065 30  26.0179434092478 29.8997995991984  25.8178053830228 29.6993987975952  L 11.8281573498965 15.6913827655311  C 11.6280193236715 15.4909819639279  11.527950310559 15.2605210420842  11.527950310559 15  C 11.527950310559 14.7394789579158  11.6280193236715 14.5090180360721  11.8281573498965 14.3086172344689  L 25.8178053830228 0.30060120240481  C 26.0179434092478 0.100200400801602  26.2481021394065 0  26.508281573499 0  C 26.7684610075914 0  26.9986197377502 0.100200400801602  27.1987577639752 0.30060120240481  L 28.6997929606625 1.80360721442886  C 28.8999309868875 2.00400801603206  29 2.23446893787575  29 2.49498997995992  C 29 2.75551102204409  28.8999309868875 2.98597194388777  28.6997929606625 3.18637274549098  L 16.9016563146998 15  L 28.6997929606625 26.813627254509  Z " fill-rule="nonzero" fill="#333333" stroke="none" transform="matrix(1 0 0 1 653 385 )" />
  </g>
</svg>