<?xml version="1.0" encoding="utf-8"?>
<svg version="1.1" xmlns:xlink="http://www.w3.org/1999/xlink" width="17px" height="30px" xmlns="http://www.w3.org/2000/svg">
  <g transform="matrix(1 0 0 1 -751 -385 )">
    <path d="M 16.7079037800687 14.3086172344689  C 16.9026345933562 14.5090180360721  17 14.7394789579158  17 15  C 17 15.2605210420842  16.9026345933562 15.4909819639279  16.7079037800687 15.6913827655311  L 3.09621993127148 29.6993987975952  C 2.90148911798396 29.8997995991984  2.67754868270332 30  2.42439862542955 30  C 2.17124856815578 30  1.94730813287514 29.8997995991984  1.75257731958763 29.6993987975952  L 0.292096219931271 28.1963927855711  C 0.0973654066437572 27.9959919839679  0 27.7655310621243  0 27.5050100200401  C 0 27.2444889779559  0.0973654066437572 27.0140280561122  0.292096219931271 26.813627254509  L 11.7714776632302 15  L 0.292096219931271 3.18637274549098  C 0.0973654066437572 2.98597194388777  0 2.75551102204409  0 2.49498997995992  C 0 2.23446893787575  0.0973654066437572 2.00400801603206  0.292096219931271 1.80360721442886  L 1.75257731958763 0.30060120240481  C 1.94730813287514 0.100200400801602  2.17124856815578 0  2.42439862542955 0  C 2.67754868270332 0  2.90148911798396 0.100200400801602  3.09621993127148 0.30060120240481  L 16.7079037800687 14.3086172344689  Z " fill-rule="nonzero" fill="#333333" stroke="none" transform="matrix(1 0 0 1 751 385 )" />
  </g>
</svg>