<?xml version="1.0" encoding="utf-8"?>
<svg version="1.1" xmlns:xlink="http://www.w3.org/1999/xlink" width="12px" height="11px" xmlns="http://www.w3.org/2000/svg">
  <g transform="matrix(1 0 0 1 -705 -33 )">
    <path d="M 11.5967213114754 10.7  C 11.272131147541 11.0090909090909  10.9475409836066 11.1  10.7016393442623 10.8727272727273  L 6 6.52727272727273  L 1.30819672131148 10.8636363636364  C 1.06229508196721 11.0909090909091  0.757377049180328 10.9909090909091  0.432786885245902 10.6909090909091  C 0.108196721311476 10.3909090909091  -0.00983606557376993 10.1090909090909  0.245901639344262 9.88181818181818  L 4.93770491803279 5.54545454545455  L 0.236065573770492 1.2  C -0.0491803278688532 0.927272727272727  0.118032786885245 0.663636363636364  0.40327868852459 0.390909090909091  C 0.727868852459016 0.0909090909090909  0.99344262295082 -0.0636363636363633  1.29836065573771 0.209090909090909  L 6 4.56363636363636  L 10.7016393442623 0.227272727272727  C 10.9770491803279 -0.0272727272727277  11.2524590163934 0.0999999999999995  11.6065573770492 0.427272727272727  C 11.9016393442623 0.7  12.0590163934426 0.936363636363636  11.7639344262295 1.20909090909091  L 7.06229508196721 5.54545454545455  L 11.7540983606557 9.88181818181818  C 12.0491803278689 10.1545454545455  11.9213114754098 10.3909090909091  11.5967213114754 10.7  Z " fill-rule="nonzero" fill="#7f7f7f" stroke="none" transform="matrix(1 0 0 1 705 33 )" />
  </g>
</svg>