<?xml version="1.0" encoding="utf-8"?>
<svg version="1.1" xmlns:xlink="http://www.w3.org/1999/xlink" width="13px" height="5px" xmlns="http://www.w3.org/2000/svg">
  <g transform="matrix(1 0 0 1 -77 -379 )">
    <path d="M 12.9423973880597 0.507387907608697  C 12.9442922108209 0.273862092391306  12.7737581623134 0.0827955163043494  12.5653276585821 0.0827955163043494  C 12.3568971548507 0.0827955163043494  12.1863631063433 0.273862092391306  12.1863631063433 0.507387907608697  L 12.1863631063433 3.71730638586957  C 12.1863631063433 3.95083220108696  12.0158290578358 4.14189877717392  11.8073985541045 4.14189877717392  L 1.19260144589552 4.14189877717392  C 0.984170942164179 4.14189877717392  0.813636893656716 3.95083220108696  0.813636893656716 3.71730638586957  L 0.813636893656716 0.507387907608697  C 0.813636893656716 0.273862092391306  0.643102845149254 0.0827955163043494  0.43467234141791 0.0827955163043494  C 0.226241837686567 0.0827955163043494  0.0557077891791045 0.273862092391306  0.0557077891791045 0.507387907608697  L 0.0557077891791045 3.71730638586957  C 0.0557077891791045 4.42000679347826  0.565415111940299 4.99108355978261  1.19260144589552 5  L 11.8055037313433 5  C 12.4326900652985 4.99108355978261  12.9423973880597 4.42000679347826  12.9423973880597 3.71730638586957  L 12.9423973880597 0.507387907608697  Z " fill-rule="nonzero" fill="#ffffff" stroke="none" transform="matrix(1 0 0 1 77 379 )" />
  </g>
</svg>