<?xml version="1.0" encoding="utf-8"?>
<svg version="1.1" xmlns:xlink="http://www.w3.org/1999/xlink" width="29px" height="30px" xmlns="http://www.w3.org/2000/svg">
  <g transform="matrix(1 0 0 1 -781 -315 )">
    <path d="M 17.1718426501035 14.3086172344689  C 17.3719806763285 14.5090180360721  17.472049689441 14.7394789579158  17.472049689441 15  C 17.472049689441 15.2605210420842  17.3719806763285 15.4909819639279  17.1718426501035 15.6913827655311  L 3.18219461697723 29.6993987975952  C 2.98205659075224 29.8997995991984  2.75189786059351 30  2.49171842650104 30  C 2.23153899240856 30  2.00138026224983 29.8997995991984  1.80124223602484 29.6993987975952  L 0.300207039337474 28.1963927855711  C 0.100069013112491 27.9959919839679  0 27.7655310621243  0 27.5050100200401  C 0 27.2444889779559  0.100069013112491 27.0140280561122  0.300207039337474 26.813627254509  L 12.0983436853002 15  L 0.300207039337474 3.18637274549098  C 0.100069013112491 2.98597194388777  0 2.75551102204409  0 2.49498997995992  C 0 2.23446893787575  0.100069013112491 2.00400801603206  0.300207039337474 1.80360721442886  L 1.80124223602484 0.30060120240481  C 2.00138026224983 0.100200400801602  2.23153899240856 0  2.49171842650104 0  C 2.75189786059351 0  2.98205659075224 0.100200400801602  3.18219461697723 0.30060120240481  L 17.1718426501035 14.3086172344689  Z M 28.6997929606625 14.3086172344689  C 28.8999309868875 14.5090180360721  29 14.7394789579158  29 15  C 29 15.2605210420842  28.8999309868875 15.4909819639279  28.6997929606625 15.6913827655311  L 14.7101449275362 29.6993987975952  C 14.5100069013113 29.8997995991984  14.2798481711525 30  14.01966873706 30  C 13.7594893029676 30  13.5293305728088 29.8997995991984  13.3291925465839 29.6993987975952  L 11.8281573498965 28.1963927855711  C 11.6280193236715 27.9959919839679  11.527950310559 27.7655310621243  11.527950310559 27.5050100200401  C 11.527950310559 27.2444889779559  11.6280193236715 27.0140280561122  11.8281573498965 26.813627254509  L 23.6262939958592 15  L 11.8281573498965 3.18637274549098  C 11.6280193236715 2.98597194388777  11.527950310559 2.75551102204409  11.527950310559 2.49498997995992  C 11.527950310559 2.23446893787575  11.6280193236715 2.00400801603206  11.8281573498965 1.80360721442886  L 13.3291925465839 0.30060120240481  C 13.5293305728088 0.100200400801602  13.7594893029676 0  14.01966873706 0  C 14.2798481711525 0  14.5100069013113 0.100200400801602  14.7101449275362 0.30060120240481  L 28.6997929606625 14.3086172344689  Z " fill-rule="nonzero" fill="#333333" stroke="none" transform="matrix(1 0 0 1 781 315 )" />
  </g>
</svg>