<?xml version="1.0" encoding="utf-8"?>
<svg version="1.1" xmlns:xlink="http://www.w3.org/1999/xlink" width="17px" height="30px" xmlns="http://www.w3.org/2000/svg">
  <g transform="matrix(1 0 0 1 -688 -315 )">
    <path d="M 16.7079037800687 1.80360721442886  C 16.9026345933562 2.00400801603206  17 2.23446893787575  17 2.49498997995992  C 17 2.75551102204409  16.9026345933562 2.98597194388777  16.7079037800687 3.18637274549098  L 5.22852233676976 15  L 16.7079037800687 26.813627254509  C 16.9026345933562 27.0140280561122  17 27.2444889779559  17 27.5050100200401  C 17 27.7655310621243  16.9026345933562 27.9959919839679  16.7079037800687 28.1963927855711  L 15.2474226804124 29.6993987975952  C 15.0526918671249 29.8997995991984  14.8287514318442 30  14.5756013745704 30  C 14.3224513172967 30  14.098510882016 29.8997995991984  13.9037800687285 29.6993987975952  L 0.292096219931271 15.6913827655311  C 0.0973654066437572 15.4909819639279  0 15.2605210420842  0 15  C 0 14.7394789579158  0.0973654066437572 14.5090180360721  0.292096219931271 14.3086172344689  L 13.9037800687285 0.30060120240481  C 14.098510882016 0.100200400801602  14.3224513172967 0  14.5756013745704 0  C 14.8287514318442 0  15.0526918671249 0.100200400801602  15.2474226804124 0.30060120240481  L 16.7079037800687 1.80360721442886  Z " fill-rule="nonzero" fill="#333333" stroke="none" transform="matrix(1 0 0 1 688 315 )" />
  </g>
</svg>