<?xml version="1.0" encoding="utf-8"?>
<svg version="1.1" xmlns:xlink="http://www.w3.org/1999/xlink" width="252px" height="30px" xmlns="http://www.w3.org/2000/svg">
  <defs>
    <mask fill="white" id="clip2">
      <path d="M 0 30  L 0 0  L 252 0  L 252 30  L 224.193548387097 30  L 189.784946236559 30  L 0 30  Z " fill-rule="evenodd" />
    </mask>
  </defs>
  <g transform="matrix(1 0 0 1 -550 -170 )">
    <path d="M 0 30  L 0 0  L 252 0  L 252 30  L 224.193548387097 30  L 189.784946236559 30  L 0 30  Z " fill-rule="nonzero" fill="#f2f2f2" stroke="none" transform="matrix(1 0 0 1 550 170 )" />
    <path d="M 0 30  L 0 0  L 252 0  L 252 30  L 224.193548387097 30  L 189.784946236559 30  L 0 30  Z " stroke-width="2" stroke="#aaaaaa" fill="none" transform="matrix(1 0 0 1 550 170 )" mask="url(#clip2)" />
  </g>
</svg>