<?xml version="1.0" encoding="utf-8"?>
<svg version="1.1" xmlns:xlink="http://www.w3.org/1999/xlink" width="20px" height="20px" xmlns="http://www.w3.org/2000/svg">
  <g transform="matrix(1 0 0 1 -402 -99 )">
    <path d="M 20 3.73315567891082  C 19.9760547991071 2.9359584247076  19.3422972098214 2.28768014437135  18.5636187053571 2.28768014437135  L 14.5893209598214 2.28768014437135  L 14.5893209598214 0.66526537372076  C 14.5893209598214 0.312930555555556  14.3104950446429 0.0272549570540936  13.9658936383929 0.0272549570540936  C 13.6213150892857 0.0272549570540936  13.3424663169643 0.312930555555556  13.3424663392857 0.66526537372076  L 13.3424663392857 2.28768014437135  L 7.34448667410714 2.28768014437135  L 7.34448667410714 0.66526537372076  C 7.34448667410714 0.312930555555556  7.06566075892857 0.0272549570540936  6.72105935267857 0.0272549570540936  C 6.37645794642857 0.0272549570540936  6.09763203125 0.312930555555556  6.09763203125 0.66526537372076  L 6.09763203125 2.28768014437135  L 1.45001542410714 2.28768014437135  C 0.671359776785714 2.28768014437135  0.0375793303571427 2.9359584247076  0 3.73315567891082  L 0 18.5212304230629  C 0.0375793303571427 19.3184276772661  0.671359776785714 19.9667059576023  1.45001542410714 20  L 18.5636187053571 20  C 19.3422743526786 19.9667059576023  19.9760547991071 19.3184276772661  20 18.5212304230629  L 20 3.73315567891082  Z M 18.7292230133929 18.5212304230629  C 18.7291222494059 18.6147878418437  18.6550376688516 18.6906053950425  18.5636187053571 18.6907085160819  L 1.45001542410714 18.6907085160819  C 1.35859646061271 18.6906053950425  1.28451188005843 18.6147878418437  1.28441111607143 18.5212304230629  L 1.28441111607143 3.73315567891082  C 1.28451188005843 3.63959826012997  1.35859646061271 3.56378070693114  1.45001542410714 3.56367758589181  L 6.09765488839286 3.56367758589181  L 6.09765488839286 5.04154714912281  C 6.09765488839286 5.39388196728801  6.37648080357143 5.67955756578947  6.72108220982143 5.67955756578947  C 7.06568361607143 5.67955756578947  7.34450953125 5.39388196728801  7.34450953125 5.04154714912281  L 7.34450953125 3.56367758589181  L 13.3424891741071 3.56367758589181  L 13.3424891741071 5.04154714912281  C 13.3424891741071 5.39388196728801  13.6213150892857 5.67955756578947  13.9659164955357 5.67955756578947  C 14.3104950446429 5.67955756578947  14.5893438169643 5.39388196728801  14.5893438169643 5.04154714912281  L 14.5893438169643 3.56367758589181  L 18.5636415625 3.56367758589181  C 18.6550605259944 3.56378070693114  18.7291451065487 3.63959826012997  18.7292458705357 3.73315567891082  L 18.7292458705357 18.5212304230629  Z " fill-rule="nonzero" fill="#7f7f7f" stroke="none" transform="matrix(1 0 0 1 402 99 )" />
  </g>
</svg>