<?xml version="1.0" encoding="utf-8"?>
<svg version="1.1" xmlns:xlink="http://www.w3.org/1999/xlink" width="18px" height="20px" xmlns="http://www.w3.org/2000/svg">
  <g transform="matrix(1 0 0 1 -697 -362 )">
    <path d="M 6.43039772727273 16.5494791666667  C 6.50710227272727 16.4713541666667  6.54545454545455 16.3715277777778  6.54545454545455 16.25  L 6.54545454545455 7.08333333333333  C 6.54545454545455 6.96180555555556  6.50710227272727 6.86197916666667  6.43039772727273 6.78385416666667  C 6.35369318181818 6.70572916666667  6.25568181818182 6.66666666666667  6.13636363636364 6.66666666666667  L 5.31818181818182 6.66666666666667  C 5.19886363636364 6.66666666666667  5.10085227272727 6.70572916666667  5.02414772727273 6.78385416666667  C 4.94744318181818 6.86197916666667  4.90909090909091 6.96180555555556  4.90909090909091 7.08333333333333  L 4.90909090909091 16.25  C 4.90909090909091 16.3715277777778  4.94744318181818 16.4713541666667  5.02414772727273 16.5494791666667  C 5.10085227272727 16.6276041666667  5.19886363636364 16.6666666666667  5.31818181818182 16.6666666666667  L 6.13636363636364 16.6666666666667  C 6.25568181818182 16.6666666666667  6.35369318181818 16.6276041666667  6.43039772727273 16.5494791666667  Z M 9.703125 16.5494791666667  C 9.77982954545455 16.4713541666667  9.81818181818182 16.3715277777778  9.81818181818182 16.25  L 9.81818181818182 7.08333333333333  C 9.81818181818182 6.96180555555556  9.77982954545455 6.86197916666667  9.703125 6.78385416666667  C 9.62642045454546 6.70572916666667  9.52840909090909 6.66666666666667  9.40909090909091 6.66666666666667  L 8.59090909090909 6.66666666666667  C 8.47159090909091 6.66666666666667  8.37357954545455 6.70572916666667  8.296875 6.78385416666667  C 8.22017045454546 6.86197916666667  8.18181818181818 6.96180555555556  8.18181818181818 7.08333333333333  L 8.18181818181818 16.25  C 8.18181818181818 16.3715277777778  8.22017045454546 16.4713541666667  8.296875 16.5494791666667  C 8.37357954545455 16.6276041666667  8.47159090909091 16.6666666666667  8.59090909090909 16.6666666666667  L 9.40909090909091 16.6666666666667  C 9.52840909090909 16.6666666666667  9.62642045454546 16.6276041666667  9.703125 16.5494791666667  Z M 12.9758522727273 16.5494791666667  C 13.0525568181818 16.4713541666667  13.0909090909091 16.3715277777778  13.0909090909091 16.25  L 13.0909090909091 7.08333333333333  C 13.0909090909091 6.96180555555556  13.0525568181818 6.86197916666667  12.9758522727273 6.78385416666667  C 12.8991477272727 6.70572916666667  12.8011363636364 6.66666666666667  12.6818181818182 6.66666666666667  L 11.8636363636364 6.66666666666667  C 11.7443181818182 6.66666666666667  11.6463068181818 6.70572916666667  11.5696022727273 6.78385416666667  C 11.4928977272727 6.86197916666667  11.4545454545455 6.96180555555556  11.4545454545455 7.08333333333333  L 11.4545454545455 16.25  C 11.4545454545455 16.3715277777778  11.4928977272727 16.4713541666667  11.5696022727273 16.5494791666667  C 11.6463068181818 16.6276041666667  11.7443181818182 16.6666666666667  11.8636363636364 16.6666666666667  L 12.6818181818182 16.6666666666667  C 12.8011363636364 16.6666666666667  12.8991477272727 16.6276041666667  12.9758522727273 16.5494791666667  Z M 6.76278409090909 1.80989583333333  L 6.13636363636364 3.33333333333333  L 11.8636363636364 3.33333333333333  L 11.25 1.80989583333333  C 11.1903409090909 1.73177083333333  11.1178977272727 1.68402777777778  11.0326704545455 1.66666666666667  L 6.98011363636364 1.66666666666667  C 6.89488636363636 1.68402777777778  6.82244318181818 1.73177083333333  6.76278409090909 1.80989583333333  Z M 17.8849431818182 3.45052083333333  C 17.9616477272727 3.52864583333333  18 3.62847222222222  18 3.75  L 18 4.58333333333333  C 18 4.70486111111111  17.9616477272727 4.8046875  17.8849431818182 4.8828125  C 17.8082386363636 4.9609375  17.7102272727273 5  17.5909090909091 5  L 16.3636363636364 5  L 16.3636363636364 17.34375  C 16.3636363636364 18.0642361111111  16.1633522727273 18.6870659722222  15.7627840909091 19.2122395833333  C 15.3622159090909 19.7374131944444  14.8806818181818 20  14.3181818181818 20  L 3.68181818181818 20  C 3.11931818181818 20  2.63778409090909 19.74609375  2.23721590909091 19.23828125  C 1.83664772727273 18.73046875  1.63636363636364 18.1163194444444  1.63636363636364 17.3958333333333  L 1.63636363636364 5  L 0.409090909090909 5  C 0.289772727272727 5  0.191761363636364 4.9609375  0.115056818181818 4.8828125  C 0.0383522727272727 4.8046875  0 4.70486111111111  0 4.58333333333333  L 0 3.75  C 0 3.62847222222222  0.0383522727272727 3.52864583333333  0.115056818181818 3.45052083333333  C 0.191761363636364 3.37239583333333  0.289772727272727 3.33333333333333  0.409090909090909 3.33333333333333  L 4.359375 3.33333333333333  L 5.25426136363636 1.15885416666667  C 5.38210227272727 0.837673611111109  5.61221590909091 0.564236111111109  5.94460227272727 0.338541666666667  C 6.27698863636364 0.112847222222221  6.61363636363636 0  6.95454545454545 0  L 11.0454545454545 0  C 11.3863636363636 0  11.7230113636364 0.112847222222221  12.0553977272727 0.338541666666667  C 12.3877840909091 0.564236111111109  12.6178977272727 0.837673611111109  12.7457386363636 1.15885416666667  L 13.640625 3.33333333333333  L 17.5909090909091 3.33333333333333  C 17.7102272727273 3.33333333333333  17.8082386363636 3.37239583333333  17.8849431818182 3.45052083333333  Z " fill-rule="nonzero" fill="#000000" stroke="none" transform="matrix(1 0 0 1 697 362 )" />
  </g>
</svg>