<?xml version="1.0" encoding="utf-8"?>
<svg version="1.1" xmlns:xlink="http://www.w3.org/1999/xlink" width="12px" height="12px" viewBox="125 63.5  12 12" xmlns="http://www.w3.org/2000/svg">
  <path d="M 131 63.5  C 134.36 63.5  137 66.14  137 69.5  C 137 72.86  134.36 75.5  131 75.5  C 127.64 75.5  125 72.86  125 69.5  C 125 66.14  127.64 63.5  131 63.5  Z " fill-rule="nonzero" fill="#f0f0f0" stroke="none" />
  <path d="M 131 64  C 134.08 64  136.5 66.42  136.5 69.5  C 136.5 72.58  134.08 75  131 75  C 127.92 75  125.5 72.58  125.5 69.5  C 125.5 66.42  127.92 64  131 64  Z " stroke-width="1" stroke="#797979" fill="none" />
  <path d="M 131 72.5  C 129.32 72.5  128 71.18  128 69.5  C 128 67.82  129.32 66.5  131 66.5  C 132.68 66.5  134 67.82  134 69.5  C 134 71.18  132.68 72.5  131 72.5  " fill-rule="nonzero" fill="#797979" stroke="none" />
</svg>