<?xml version="1.0" encoding="utf-8"?>
<svg version="1.1" xmlns:xlink="http://www.w3.org/1999/xlink" width="12px" height="12px" viewBox="325 63.5  12 12" xmlns="http://www.w3.org/2000/svg">
  <path d="M 331 63.5  C 334.36 63.5  337 66.14  337 69.5  C 337 72.86  334.36 75.5  331 75.5  C 327.64 75.5  325 72.86  325 69.5  C 325 66.14  327.64 63.5  331 63.5  Z " fill-rule="nonzero" fill="#f0f0f0" stroke="none" />
  <path d="M 331 64  C 334.08 64  336.5 66.42  336.5 69.5  C 336.5 72.58  334.08 75  331 75  C 327.92 75  325.5 72.58  325.5 69.5  C 325.5 66.42  327.92 64  331 64  Z " stroke-width="1" stroke="#797979" fill="none" />
  <path d="M 331 72.5  C 329.32 72.5  328 71.18  328 69.5  C 328 67.82  329.32 66.5  331 66.5  C 332.68 66.5  334 67.82  334 69.5  C 334 71.18  332.68 72.5  331 72.5  " fill-rule="nonzero" fill="#797979" stroke="none" />
</svg>