<?xml version="1.0" encoding="UTF-8"?>
<svg width="94px" height="94px" viewBox="0 0 94 94" version="1.1" xmlns="http://www.w3.org/2000/svg" xmlns:xlink="http://www.w3.org/1999/xlink">
    <title>Icon_Protection@1x</title>
    <defs>
        <linearGradient x1="50%" y1="0%" x2="50%" y2="100%" id="linearGradient-1">
            <stop stop-color="#98FEFF" offset="0%"></stop>
            <stop stop-color="#2148A3" offset="100%"></stop>
        </linearGradient>
        <path d="M45.5200059,7.50324169 C46.4451829,6.83225277 47.7399972,6.83225277 48.4801388,7.50324169 C48.6651742,7.50324169 58.100029,13.8761624 81.7800087,13.3729207 C82.1500795,13.3729207 82.8902211,13.5406679 83.2598584,13.8761624 C83.8149646,14.2116568 84,14.7148985 84,15.2178454 L84,15.2178454 L84,44.5680091 C84,44.9035036 83.0752565,76.9368368 47.7399972,87 L47.7399972,87 L46.2601475,87 C11.095693,76.695214 10.0296392,47.2248902 10.000618,44.5869279 L10,15.2178454 C10,14.7148985 10.3702155,14.2116568 10.7402863,13.8761624 C11.1103571,13.3729207 11.6654634,13.2055665 12.220136,13.3729207 L12.220136,13.3729207 L14.8103065,13.3729207 C36.4552219,13.3729207 45.335404,7.50324169 45.5200059,7.50324169 Z M48.7779221,31.3333333 L44.1008658,31.3333333 L44.1,45.238 L30.069697,45.2380952 L30.069697,49.8730159 L44.1,49.873 L44.1008658,63.7777778 L48.7779221,63.7777778 L48.777,49.873 L62.8090909,49.8730159 L62.8090909,45.2380952 L48.777,45.238 L48.7779221,31.3333333 Z" id="path-2"></path>
        <filter x="-9.5%" y="-6.2%" width="118.9%" height="117.5%" filterUnits="objectBoundingBox" id="filter-3">
            <feOffset dx="0" dy="2" in="SourceAlpha" result="shadowOffsetOuter1"></feOffset>
            <feGaussianBlur stdDeviation="2" in="shadowOffsetOuter1" result="shadowBlurOuter1"></feGaussianBlur>
            <feColorMatrix values="0 0 0 0 0.0232258065   0 0 0 0 0.0522580645   0 0 0 0 0.12  0 0 0 1 0" type="matrix" in="shadowBlurOuter1"></feColorMatrix>
        </filter>
        <filter x="-75.0%" y="-75.0%" width="250.0%" height="250.0%" filterUnits="objectBoundingBox" id="filter-4">
            <feGaussianBlur stdDeviation="0.434843193 0.900506189" in="SourceGraphic"></feGaussianBlur>
        </filter>
        <filter x="-75.0%" y="-75.0%" width="250.0%" height="250.0%" filterUnits="objectBoundingBox" id="filter-5">
            <feGaussianBlur stdDeviation="0.669138302 -0.743137896" in="SourceGraphic"></feGaussianBlur>
        </filter>
    </defs>
    <g id="页面-1" stroke="none" stroke-width="1" fill="none" fill-rule="evenodd">
        <g id="全国-综合疫情" transform="translate(-183.000000, -495.000000)">
            <g id="编组-15" transform="translate(20.000000, 330.000000)">
                <g id="Icon_Protection" transform="translate(163.000000, 165.000000)">
                    <g id="路径-3">
                        <use fill="black" fill-opacity="1" filter="url(#filter-3)" xlink:href="#path-2"></use>
                        <use fill="url(#linearGradient-1)" fill-rule="evenodd" xlink:href="#path-2"></use>
                    </g>
                    <path d="M31.5552784,31.5552784 C56.0636656,7.04693377 82.8464496,-5.90619448 91.3763229,2.62367707 C99.9061945,11.1535504 86.9530662,37.9363344 62.4447216,62.4447216 C37.9363344,86.9530662 11.1535504,99.9061945 2.62367707,91.3763229 C-5.90619448,82.8464496 7.04693377,56.0636656 31.5552784,31.5552784 Z M90.6692162,3.33078393 C82.7326562,-4.60577446 56.3906386,8.13417368 32.2623846,32.2623858 C8.13417369,56.3906386 -4.60577446,82.7326562 3.33078378,90.6692161 C11.2673438,98.6057745 37.6093614,85.8658263 61.7376142,61.7376154 C85.8658263,37.6093614 98.6057745,11.2673438 90.6692162,3.33078393 Z" id="椭圆形" fill="" fill-rule="nonzero"></path>
                    <path d="M2.62367707,2.62367707 C11.1535504,-5.90619448 37.9363344,7.04693377 62.4447216,31.5552784 C86.9530662,56.0636656 99.9061945,82.8464496 91.3763229,91.3763229 C82.8464496,99.9061945 56.0636656,86.9530662 31.5552784,62.4447216 C7.04693377,37.9363344 -5.90619448,11.1535504 2.62367707,2.62367707 Z M61.7376154,32.2623858 C37.6093614,8.13417368 11.2673438,-4.60577446 3.33078378,3.33078393 C-4.60577446,11.2673438 8.13417369,37.6093614 32.2623846,61.7376142 C56.3906386,85.8658263 82.7326562,98.6057745 90.6692161,90.6692162 C98.6057745,82.7326562 85.8658263,56.3906386 61.7376154,32.2623858 Z" id="椭圆形备份-3" fill="" fill-rule="nonzero"></path>
                    <circle id="椭圆形" fill="#C2D8FF" filter="url(#filter-4)" cx="88" cy="28" r="2"></circle>
                    <circle id="椭圆形备份-4" fill="#C2D8FF" filter="url(#filter-5)" cx="26" cy="56" r="2"></circle>
                </g>
            </g>
        </g>
    </g>
</svg>