<?xml version="1.0" encoding="UTF-8"?>
<svg width="654px" height="24px" viewBox="0 0 654 24" version="1.1" xmlns="http://www.w3.org/2000/svg" xmlns:xlink="http://www.w3.org/1999/xlink">
    <title>Title_Tray</title>
    <defs>
        <linearGradient x1="50%" y1="0%" x2="50%" y2="100%" id="linearGradient-1">
            <stop stop-color="#0078B0" offset="0%"></stop>
            <stop stop-color="#042B64" offset="100%"></stop>
        </linearGradient>
        <linearGradient x1="50%" y1="0%" x2="50%" y2="100%" id="linearGradient-2">
            <stop stop-color="#12DEE9" offset="0%"></stop>
            <stop stop-color="#0CE5EA" offset="100%"></stop>
        </linearGradient>
    </defs>
    <g id="页面-1" stroke="none" stroke-width="1" fill="none" fill-rule="evenodd">
        <g id="全国-综合疫情" transform="translate(-633.000000, -56.000000)">
            <g id="Title_Tray" transform="translate(633.000000, 56.000000)">
                <path d="M619.907671,0.5 L651.292287,12.5 L540.151388,12.5 L533.990205,8.39254471 L519.839767,18.5 L134.160233,18.5 L120.009795,8.39254471 L113.848612,12.5 L2.70771344,12.5 L34.0923288,0.5 L619.907671,0.5 Z" id="矩形" stroke="#03497A" fill="url(#linearGradient-1)"></path>
                <polygon id="路径" fill="#31CBF0" fill-rule="nonzero" points="519.678 22.0351882 533.98041 12 540.303 16.1407529 580 16.1407529 580 18.1055647 539.697224 18.1055647 534.019 14.3871584 520.320465 24 133.679535 24 119.98 14.3871584 114.302776 18.1055647 74 18.1055647 74 16.1407529 113.696 16.1407529 120.01959 12 134.321 22.0351882"></polygon>
                <circle id="椭圆形" stroke="#31CBF0" stroke-width="2" cx="70" cy="17" r="3"></circle>
                <circle id="椭圆形备份-18" stroke="#31CBF0" stroke-width="2" cx="584" cy="17" r="3"></circle>
                <path d="M2,15 C3.1045695,15 4,15.8954305 4,17 C4,18.1045695 3.1045695,19 2,19 C0.8954305,19 0,18.1045695 0,17 C0,15.8954305 0.8954305,15 2,15 Z M58,15 C59.1045695,15 60,15.8954305 60,17 C60,18.1045695 59.1045695,19 58,19 C56.8954305,19 56,18.1045695 56,17 C56,15.8954305 56.8954305,15 58,15 Z M50,15 C51.1045695,15 52,15.8954305 52,17 C52,18.1045695 51.1045695,19 50,19 C48.8954305,19 48,18.1045695 48,17 C48,15.8954305 48.8954305,15 50,15 Z M42,15 C43.1045695,15 44,15.8954305 44,17 C44,18.1045695 43.1045695,19 42,19 C40.8954305,19 40,18.1045695 40,17 C40,15.8954305 40.8954305,15 42,15 Z M34,15 C35.1045695,15 36,15.8954305 36,17 C36,18.1045695 35.1045695,19 34,19 C32.8954305,19 32,18.1045695 32,17 C32,15.8954305 32.8954305,15 34,15 Z M26,15 C27.1045695,15 28,15.8954305 28,17 C28,18.1045695 27.1045695,19 26,19 C24.8954305,19 24,18.1045695 24,17 C24,15.8954305 24.8954305,15 26,15 Z M18,15 C19.1045695,15 20,15.8954305 20,17 C20,18.1045695 19.1045695,19 18,19 C16.8954305,19 16,18.1045695 16,17 C16,15.8954305 16.8954305,15 18,15 Z M10,15 C11.1045695,15 12,15.8954305 12,17 C12,18.1045695 11.1045695,19 10,19 C8.8954305,19 8,18.1045695 8,17 C8,15.8954305 8.8954305,15 10,15 Z" id="椭圆形备份-16" fill="url(#linearGradient-2)"></path>
                <path d="M596,15 C597.104569,15 598,15.8954305 598,17 C598,18.1045695 597.104569,19 596,19 C594.895431,19 594,18.1045695 594,17 C594,15.8954305 594.895431,15 596,15 Z M652,15 C653.104569,15 654,15.8954305 654,17 C654,18.1045695 653.104569,19 652,19 C650.895431,19 650,18.1045695 650,17 C650,15.8954305 650.895431,15 652,15 Z M644,15 C645.104569,15 646,15.8954305 646,17 C646,18.1045695 645.104569,19 644,19 C642.895431,19 642,18.1045695 642,17 C642,15.8954305 642.895431,15 644,15 Z M636,15 C637.104569,15 638,15.8954305 638,17 C638,18.1045695 637.104569,19 636,19 C634.895431,19 634,18.1045695 634,17 C634,15.8954305 634.895431,15 636,15 Z M628,15 C629.104569,15 630,15.8954305 630,17 C630,18.1045695 629.104569,19 628,19 C626.895431,19 626,18.1045695 626,17 C626,15.8954305 626.895431,15 628,15 Z M620,15 C621.104569,15 622,15.8954305 622,17 C622,18.1045695 621.104569,19 620,19 C618.895431,19 618,18.1045695 618,17 C618,15.8954305 618.895431,15 620,15 Z M612,15 C613.104569,15 614,15.8954305 614,17 C614,18.1045695 613.104569,19 612,19 C610.895431,19 610,18.1045695 610,17 C610,15.8954305 610.895431,15 612,15 Z M604,15 C605.104569,15 606,15.8954305 606,17 C606,18.1045695 605.104569,19 604,19 C602.895431,19 602,18.1045695 602,17 C602,15.8954305 602.895431,15 604,15 Z" id="椭圆形备份-17" fill="url(#linearGradient-2)"></path>
            </g>
        </g>
    </g>
</svg>