<?xml version="1.0" encoding="utf-8"?>
<svg version="1.1" xmlns:xlink="http://www.w3.org/1999/xlink" width="77px" height="30px" xmlns="http://www.w3.org/2000/svg">
  <defs>
    <mask fill="white" id="clip48">
      <path d="M 0 30  L 0 0  L 51.7164179104478 0  L 77 0  L 77 30  L 48.2686567164179 30  L 0 30  Z " fill-rule="evenodd" />
    </mask>
  </defs>
  <g transform="matrix(1 0 0 1 -972 -58 )">
    <path d="M 0 30  L 0 0  L 51.7164179104478 0  L 77 0  L 77 30  L 48.2686567164179 30  L 0 30  Z " fill-rule="nonzero" fill="#ffffff" stroke="none" transform="matrix(1 0 0 1 972 58 )" />
    <path d="M 0 30  L 0 0  L 51.7164179104478 0  L 77 0  L 77 30  L 48.2686567164179 30  L 0 30  Z " stroke-width="2" stroke="#aaaaaa" fill="none" transform="matrix(1 0 0 1 972 58 )" mask="url(#clip48)" />
  </g>
</svg>