<?xml version="1.0" encoding="utf-8"?>
<svg version="1.1" xmlns:xlink="http://www.w3.org/1999/xlink" width="55px" height="20px" xmlns="http://www.w3.org/2000/svg">
  <defs>
    <mask fill="white" id="clip54">
      <path d="M 0 15  L 0 5  C 0 2.2  2.19999999999999 0  5 0  L 26 0  L 50 0  C 52.8 0  55 2.2  55 5  L 55 15  C 55 17.8  52.8 20  50 20  L 5 20  C 2.19999999999999 20  0 17.8  0 15  Z " fill-rule="evenodd" />
    </mask>
  </defs>
  <g transform="matrix(1 0 0 1 -383 -34 )">
    <path d="M 0 15  L 0 5  C 0 2.2  2.19999999999999 0  5 0  L 26 0  L 50 0  C 52.8 0  55 2.2  55 5  L 55 15  C 55 17.8  52.8 20  50 20  L 5 20  C 2.19999999999999 20  0 17.8  0 15  Z " fill-rule="nonzero" fill="#f2f2f2" stroke="none" transform="matrix(1 0 0 1 383 34 )" />
    <path d="M 0 15  L 0 5  C 0 2.2  2.19999999999999 0  5 0  L 26 0  L 50 0  C 52.8 0  55 2.2  55 5  L 55 15  C 55 17.8  52.8 20  50 20  L 5 20  C 2.19999999999999 20  0 17.8  0 15  Z " stroke-width="2" stroke="#d7d7d7" fill="none" transform="matrix(1 0 0 1 383 34 )" mask="url(#clip54)" />
  </g>
</svg>