<?xml version="1.0" encoding="UTF-8"?>
<svg width="124px" height="68px" viewBox="0 0 124 68" version="1.1" xmlns="http://www.w3.org/2000/svg" xmlns:xlink="http://www.w3.org/1999/xlink">
    <title>Icon_WorkLoad</title>
    <defs>
        <linearGradient x1="50%" y1="0%" x2="50%" y2="100%" id="linearGradient-1">
            <stop stop-color="#2784F0" offset="0%"></stop>
            <stop stop-color="#496DD2" offset="100%"></stop>
        </linearGradient>
        <linearGradient x1="50%" y1="0%" x2="50%" y2="100%" id="linearGradient-2">
            <stop stop-color="#32C0F7" offset="0.0983391608%"></stop>
            <stop stop-color="#215FA3" offset="100%"></stop>
        </linearGradient>
        <linearGradient x1="50%" y1="0%" x2="50%" y2="100%" id="linearGradient-3">
            <stop stop-color="#0C1B3E" offset="0%"></stop>
            <stop stop-color="#25668F" offset="99.9098558%"></stop>
        </linearGradient>
        <linearGradient x1="50%" y1="0%" x2="50%" y2="100%" id="linearGradient-4">
            <stop stop-color="#0C1B3E" offset="0%"></stop>
            <stop stop-color="#3EA1E0" offset="99.9098558%"></stop>
        </linearGradient>
        <linearGradient x1="50%" y1="0%" x2="50%" y2="100%" id="linearGradient-5">
            <stop stop-color="#32BFF6" offset="0%"></stop>
            <stop stop-color="#1D568F" offset="100%"></stop>
        </linearGradient>
        <ellipse id="path-6" cx="62" cy="39" rx="24" ry="8"></ellipse>
        <mask id="mask-7" maskContentUnits="userSpaceOnUse" maskUnits="objectBoundingBox" x="0" y="0" width="48" height="16" fill="white">
            <use xlink:href="#path-6"></use>
        </mask>
        <ellipse id="path-8" cx="62" cy="28" rx="32" ry="10"></ellipse>
        <mask id="mask-9" maskContentUnits="userSpaceOnUse" maskUnits="objectBoundingBox" x="0" y="0" width="64" height="20" fill="white">
            <use xlink:href="#path-8"></use>
        </mask>
        <ellipse id="path-10" cx="62" cy="14" rx="40" ry="12"></ellipse>
        <mask id="mask-11" maskContentUnits="userSpaceOnUse" maskUnits="objectBoundingBox" x="0" y="0" width="80" height="24" fill="white">
            <use xlink:href="#path-10"></use>
        </mask>
    </defs>
    <g id="页面-1" stroke="none" stroke-width="1" fill="none" fill-rule="evenodd">
        <g id="全国-综合疫情(居中1)" transform="translate(-259.000000, -190.000000)">
            <g id="编组-13" transform="translate(20.000000, 100.000000)">
                <g id="Icon_WorkLoad" transform="translate(239.000000, 90.000000)">
                    <path d="M62,68 C80.7776815,68 96,63.5228475 96,58 C96,52.4771525 80.7776815,48 62,48 C43.2223185,48 28,52.4771525 28,58 C28,63.5228475 43.2223185,68 62,68 Z" id="椭圆形" fill="url(#linearGradient-1)" opacity="0.400000006"></path>
                    <path d="M62,64 C74.1502645,64 84,60.8659932 84,57 C84,53.1340068 74.1502645,50 62,50 C49.8497355,50 40,53.1340068 40,57 C40,60.8659932 49.8497355,64 62,64 Z" id="椭圆形" fill="url(#linearGradient-2)"></path>
                    <path d="M124,0 L96,58 C96,52.4771525 80.7776815,48 62,48 C43.4100953,48 28.3048019,52.3880572 28.004555,57.8346317 L28,58 L0,0 L124,0 Z" id="矩形-5" fill="url(#linearGradient-3)" opacity="0.400000006"></path>
                    <path d="M112,0 L84,58 L83.7769242,58.0006276 C83.9239336,57.6738247 84,57.3397388 84,57 C84,53.1340068 74.1502645,50 62,50 C49.8497355,50 40,53.1340068 40,57 C40,57.3397388 40.0760664,57.6738247 40.2230758,58.0006276 L40,58 L12,0 L112,0 Z" id="矩形-4" fill="url(#linearGradient-4)" opacity="0.400000006"></path>
                    <path d="M65.7333841,0 C66.8650038,0 67.9501002,0.421438891 68.7502554,1.17159133 C69.5504693,1.92174376 70,2.93908582 70,3.99993408 L70,4 L75.4312154,4 C76.4227388,4.04366398 77.3555466,4.47028424 78.0242146,5.18631018 C78.6930986,5.90212519 79.0425302,6.84823077 78.9958601,7.81601012 L78.9958601,36.1839371 C79.0425302,37.1517165 78.6930986,38.0978221 78.0242146,38.8136898 C77.3555466,39.5297158 76.4227388,39.9562833 75.4312154,40 L48.5685936,40 C47.5773402,39.9562833 46.6442624,39.5297158 45.9755944,38.8136898 C45.3069804,38.0978221 44.9573328,37.1517165 45.004165,36.1839371 L45.004165,7.81601012 C44.9573328,6.84823077 45.3069804,5.90212519 45.9755944,5.18631018 C46.6442624,4.47028424 47.5773402,4.04366398 48.5685936,4 L54,4 L54,3.99993408 C54,2.93908582 54.4495307,1.92174376 55.249686,1.17159133 C56.0498998,0.421438891 57.1352305,0 58.2667917,0 L65.7333841,0 Z M54.1044157,6.87961569 L48.5685936,6.8799768 C48.2736105,6.8799768 47.954158,7.28803459 47.954158,7.81601012 L47.954158,36.1839371 C47.954158,36.7360122 48.2736105,37.1199705 48.5685936,37.1199705 L75.4312154,37.1199705 C75.7261985,37.1199705 76.045867,36.7360122 76.045867,36.1839371 L76.045867,7.81601012 C76.045867,7.28803459 75.7261985,6.8799768 75.4312154,6.8799768 L69.895583,6.87961569 C69.7194884,7.61194763 69.3254741,8.28929418 68.7502554,8.82840867 C67.9501002,9.57856111 66.8650038,10 65.7333841,10 L58.2667917,10 C57.1352305,10 56.0498998,9.57856111 55.249686,8.82840867 C54.6745094,8.28929418 54.280507,7.61194763 54.1044157,6.87961569 Z M67.7729133,24 C68.6072539,24 69.0242042,24.416714 69.0242042,25.2501419 L69.0242042,25.7501328 C69.0242042,26.5835058 68.6072539,27 67.7729133,27 L55.2591793,27 C54.4248387,27 54.0076684,26.5835058 54.0076684,25.7501328 L54.0076684,25.2501419 C54.0076684,24.416714 54.4248387,24 55.2591793,24 L67.7729133,24 Z M67.7729133,17 C68.6072539,17 69.0242042,17.416714 69.0242042,18.2499222 L69.0242042,18.7500778 C69.0242042,19.583286 68.6072539,20 67.7729133,20 L55.2591793,20 C54.4248387,20 54.0076684,19.583286 54.0076684,18.7500778 L54.0076684,18.2499222 C54.0076684,17.416714 54.4248387,17 55.2591793,17 L67.7729133,17 Z M65.8922622,3.00000549 L58.1145523,3.00000549 C57.5009048,3.00000549 57.0032852,3.44781178 57.0032852,3.99993408 L57.0032852,6.00000549 C57.0032852,6.26522305 57.1203506,6.51950363 57.3287246,6.70704174 C57.5371597,6.89463478 57.8198745,6.99993957 58.1145523,6.99993957 L65.8922622,6.99993957 C66.5059707,6.99993957 67.0032852,6.55235302 67.0032852,6.00000549 L67.0032852,3.99993408 C67.0032852,3.44781178 66.5059707,3.00000549 65.8922622,3.00000549 Z" id="Fill-3" fill="url(#linearGradient-5)"></path>
                    <use id="椭圆形备份-2" stroke="#30ADF5" mask="url(#mask-7)" stroke-width="2" opacity="0.239999995" stroke-dasharray="1,1" xlink:href="#path-6"></use>
                    <use id="椭圆形备份" stroke="#30ADF5" mask="url(#mask-9)" stroke-width="2" opacity="0.239999995" stroke-dasharray="1,1" xlink:href="#path-8"></use>
                    <use id="椭圆形" stroke="#30ADF5" mask="url(#mask-11)" stroke-width="2" opacity="0.239999995" stroke-dasharray="1,1" xlink:href="#path-10"></use>
                </g>
            </g>
        </g>
    </g>
</svg>