<?xml version="1.0" encoding="UTF-8"?>
<svg width="124px" height="68px" viewBox="0 0 124 68" version="1.1" xmlns="http://www.w3.org/2000/svg" xmlns:xlink="http://www.w3.org/1999/xlink">
    <title>Icon_Mechanism</title>
    <defs>
        <linearGradient x1="50%" y1="0%" x2="50%" y2="100%" id="linearGradient-1">
            <stop stop-color="#2DA1A9" offset="0%"></stop>
            <stop stop-color="#308EB8" offset="100%"></stop>
        </linearGradient>
        <linearGradient x1="50%" y1="0%" x2="50%" y2="100%" id="linearGradient-2">
            <stop stop-color="#2EE7C2" offset="0.0983391608%"></stop>
            <stop stop-color="#249BC3" offset="100%"></stop>
        </linearGradient>
        <linearGradient x1="50%" y1="0%" x2="50%" y2="100%" id="linearGradient-3">
            <stop stop-color="#0C1B3E" offset="0%"></stop>
            <stop stop-color="#10656D" offset="100%"></stop>
        </linearGradient>
        <linearGradient x1="50%" y1="0%" x2="50%" y2="100%" id="linearGradient-4">
            <stop stop-color="#0C1B3E" offset="0%"></stop>
            <stop stop-color="#3FE0B4" offset="99.9098558%"></stop>
        </linearGradient>
        <linearGradient x1="50%" y1="0%" x2="50%" y2="100%" id="linearGradient-5">
            <stop stop-color="#37E5D2" offset="0.076486014%"></stop>
            <stop stop-color="#1A7082" offset="100%"></stop>
        </linearGradient>
        <ellipse id="path-6" cx="62" cy="39" rx="24" ry="8"></ellipse>
        <mask id="mask-7" maskContentUnits="userSpaceOnUse" maskUnits="objectBoundingBox" x="0" y="0" width="48" height="16" fill="white">
            <use xlink:href="#path-6"></use>
        </mask>
        <ellipse id="path-8" cx="62" cy="28" rx="32" ry="10"></ellipse>
        <mask id="mask-9" maskContentUnits="userSpaceOnUse" maskUnits="objectBoundingBox" x="0" y="0" width="64" height="20" fill="white">
            <use xlink:href="#path-8"></use>
        </mask>
        <ellipse id="path-10" cx="62" cy="14" rx="40" ry="12"></ellipse>
        <mask id="mask-11" maskContentUnits="userSpaceOnUse" maskUnits="objectBoundingBox" x="0" y="0" width="80" height="24" fill="white">
            <use xlink:href="#path-10"></use>
        </mask>
    </defs>
    <g id="页面-1" stroke="none" stroke-width="1" fill="none" fill-rule="evenodd">
        <g id="全国-综合疫情(居中1)" transform="translate(-77.000000, -190.000000)">
            <g id="编组-13" transform="translate(20.000000, 100.000000)">
                <g id="Icon_Mechanism" transform="translate(57.000000, 90.000000)">
                    <path d="M62,68 C80.7776815,68 96,63.5228475 96,58 C96,52.4771525 80.7776815,48 62,48 C43.2223185,48 28,52.4771525 28,58 C28,63.5228475 43.2223185,68 62,68 Z" id="椭圆形" fill="url(#linearGradient-1)" opacity="0.400000006"></path>
                    <path d="M62,64 C74.1502645,64 84,60.8659932 84,57 C84,53.1340068 74.1502645,50 62,50 C49.8497355,50 40,53.1340068 40,57 C40,60.8659932 49.8497355,64 62,64 Z" id="椭圆形" fill="url(#linearGradient-2)"></path>
                    <path d="M124,0 L96,58 C96,52.4771525 80.7776815,48 62,48 C43.4100953,48 28.3048019,52.3880572 28.004555,57.8346317 L28,58 L0,0 L124,0 Z" id="矩形-5" fill="url(#linearGradient-3)" opacity="0.400000006"></path>
                    <path d="M112,-7.10542736e-15 L84,58 L83.7769242,58.0006276 C83.9239336,57.6738247 84,57.3397388 84,57 C84,53.1340068 74.1502645,50 62,50 C49.8497355,50 40,53.1340068 40,57 C40,57.3397388 40.0760664,57.6738247 40.2230758,58.0006276 L40,58 L12,-7.10542736e-15 L112,-7.10542736e-15 Z" id="矩形-4" fill="url(#linearGradient-4)" opacity="0.400000006"></path>
                    <path d="M63.8124778,0 C65.6574508,0 67.1474916,1.49004088 67.1474916,3.33501384 L67.1474916,12.2299466 L75.5975996,12.2299466 C77.3750432,12.2299466 78.8225547,13.674919 78.8225547,15.455097 L78.8225547,37.2425748 L80.6425276,37.2425748 C81.3999504,37.2425748 82,37.8675755 82,38.6225081 C81.9959961,39.3816399 81.3816399,39.9959961 80.6225081,40 L43.3750017,40 C42.6168465,39.9946777 42.0040039,39.3807121 42,38.6225081 C42,37.8651341 42.6225594,37.2425748 43.3774919,37.2425748 L44.9125036,37.2425748 L44.9125036,3.33501384 C44.9125036,1.49004088 46.4025444,0 48.2500076,0 L63.8124778,0 Z M63.2575943,2.77991637 L48.8050376,2.77991637 C48.5093829,2.77671237 48.2248123,2.892484 48.0155835,3.10117566 C47.8061594,3.31001381 47.6898019,3.59438915 47.6924419,3.89004381 L47.6924419,37.2425748 L64.3675814,37.2425748 L64.3675814,3.89253405 C64.3709257,3.59687939 64.2551541,3.31230873 64.046316,3.10307996 C63.837429,2.89365588 63.553249,2.77729831 63.2575943,2.77991637 Z M67.1450014,15.0075867 L67.1450014,37.2425748 L76.0376392,37.2425748 L76.0376392,16.3000199 C76.0376392,15.5885932 75.4614178,15.0114441 74.7499911,15.0100769 L67.1450014,15.0075867 Z M73.8149802,28.1275246 C74.4400298,28.1275246 74.9275759,28.637535 74.9275759,29.2375845 L74.9275759,29.4624871 C74.930216,29.758093 74.8138584,30.0425171 74.6044343,30.2513553 C74.3952056,30.4601934 74.1106349,30.5759651 73.8149802,30.5725471 L69.3676115,30.5725471 C69.0718104,30.5752326 68.7875815,30.4588751 68.5787434,30.249451 C68.3699052,30.0402222 68.2541336,29.7556516 68.2575516,29.4599969 L68.2575516,29.2375845 C68.254866,28.9423205 68.370833,28.6583358 68.5797199,28.4496441 C68.7883628,28.2410013 69.0723475,28.124839 69.3676115,28.1275246 L73.8149802,28.1275246 Z M61.2551016,23.2349893 C61.5510981,23.2317178 61.8360594,23.3476848 62.0454835,23.5571088 C62.2547122,23.7665329 62.3708745,24.0514942 62.3674565,24.3475395 L62.3674565,24.5700984 C62.3703374,24.865753 62.2537845,25.149933 62.0445557,25.35882 C61.8353269,25.5676582 61.5507075,25.6834298 61.2551016,25.6800118 L57.9200878,25.6800118 C57.6244331,25.6834298 57.3398625,25.5676582 57.1304384,25.35882 C56.9212096,25.149933 56.8048521,24.865753 56.8074921,24.5700984 L56.8074921,24.3450492 C56.8048521,24.0493946 56.9212096,23.7650192 57.1304384,23.5563764 C57.3398625,23.3474894 57.6244331,23.2317178 57.9200878,23.2349893 L61.2551016,23.2349893 Z M54.030044,23.2349893 C54.6300935,23.2349893 55.139961,23.7249801 55.139961,24.3475395 L55.139961,24.5700984 C55.1427895,24.8651671 55.0266272,25.1492006 54.8179844,25.3578435 C54.6090974,25.5666816 54.325308,25.6826485 54.030044,25.6800118 L50.6925399,25.6800118 C50.3973247,25.6826485 50.1134865,25.5666816 49.9046483,25.3578435 C49.6959567,25.1492006 49.5797944,24.8651671 49.5824344,24.5700984 L49.5824344,24.3450492 C49.5797944,24.0497852 49.6959567,23.7659958 49.9046483,23.5571088 C50.1134865,23.348466 50.3973247,23.2323038 50.6925399,23.2349893 L54.030044,23.2349893 Z M73.7051168,21.6776144 C74.3950102,21.6776144 74.9300207,22.2349393 74.9300207,22.9025182 C74.9300207,23.5676069 74.3725005,24.1249318 73.7051168,24.1249318 L69.4799652,24.1249318 C68.8076499,24.116924 68.2653641,23.5723921 68.2600418,22.900028 C68.2600418,22.2349393 68.8150718,21.6776144 69.4824554,21.6776144 L73.7051168,21.6776144 Z M61.3250724,16.4524127 C61.6207271,16.4497759 61.9049071,16.56628 62.1137941,16.7755088 C62.3226322,16.9847864 62.4384039,17.269357 62.4349859,17.5649628 L62.4349859,17.7900608 C62.4376226,18.0853248 62.3217045,18.3691142 62.1128175,18.5780012 C61.9041747,18.786644 61.6201411,18.9028063 61.3250724,18.8999254 L57.9876172,18.8999254 C57.6913766,18.9033922 57.4064153,18.78723 57.1971865,18.5780012 C56.9877624,18.3685283 56.8716002,18.0836158 56.875067,17.7875705 L56.875067,17.5649628 C56.8716002,17.2689664 56.9877624,16.9840051 57.1971865,16.774581 C57.4064153,16.5653523 57.6913766,16.44919 57.9876172,16.4524127 L61.3250724,16.4524127 Z M54.1000636,16.4524127 C54.7001132,16.4524127 55.2099804,16.9424035 55.2099804,17.5649628 L55.2099804,17.7900608 C55.2128091,18.0857154 55.0962562,18.3698955 54.8870274,18.5787336 C54.6777987,18.7876206 54.3931792,18.9033922 54.0975734,18.8999254 L50.7600693,18.8999254 C50.4638775,18.9033922 50.1789162,18.78723 49.9696875,18.5780012 C49.7602634,18.3685283 49.6441011,18.0836158 49.6475191,17.7875705 L49.6475191,17.5649628 C49.6441011,17.2689664 49.7602634,16.9840051 49.9696875,16.774581 C50.1789162,16.5653523 50.4638775,16.44919 50.7600693,16.4524127 L54.1000636,16.4524127 Z M61.3250724,9.6725704 C61.6207271,9.66988485 61.9049071,9.78624241 62.1137941,9.99547119 C62.3226322,10.2048953 62.4384039,10.4892706 62.4349859,10.7849253 L62.4349859,11.0050427 C62.4384039,11.3006486 62.3226322,11.585268 62.1137941,11.7944968 C61.9049071,12.0037256 61.6207271,12.1202785 61.3250724,12.1175929 L57.9876172,12.1175929 C57.6913766,12.1208156 57.4064153,12.0048486 57.1971865,11.7954246 C56.9877624,11.5860005 56.8716002,11.3010392 56.875067,11.0050427 L56.875067,10.7849253 C56.8716002,10.48888 56.9877624,10.2039675 57.1971865,9.99468993 C57.4064153,9.78526585 57.6913766,9.6691036 57.9876172,9.6725704 L61.3250724,9.6725704 Z M54.1000636,9.6725704 C54.7001132,9.6725704 55.2099282,10.160071 55.2099282,10.7849253 L55.2099282,11.0050427 C55.2133462,11.3010392 55.097184,11.5860005 54.8879552,11.7954246 C54.6785311,12.0048486 54.3935698,12.1208156 54.0975734,12.1175929 L50.7600693,12.1175929 C50.4638775,12.1208156 50.1789162,12.0048486 49.9696875,11.7954246 C49.7602634,11.5860005 49.6441011,11.3010392 49.6475191,11.0050427 L49.6475191,10.7849253 C49.6441011,10.48888 49.7602634,10.2039675 49.9696875,9.99468993 C50.1789162,9.78526585 50.4638775,9.6691036 50.7600693,9.6725704 L54.1000636,9.6725704 Z" id="Fill-1" fill="url(#linearGradient-5)"></path>
                    <use id="椭圆形备份-2" stroke="#3FC1E0" mask="url(#mask-7)" stroke-width="2" opacity="0.239999995" stroke-dasharray="1,1" xlink:href="#path-6"></use>
                    <use id="椭圆形备份" stroke="#3FC1E0" mask="url(#mask-9)" stroke-width="2" opacity="0.239999995" stroke-dasharray="1,1" xlink:href="#path-8"></use>
                    <use id="椭圆形" stroke="#3FC1E0" mask="url(#mask-11)" stroke-width="2" opacity="0.239999995" stroke-dasharray="1,1" xlink:href="#path-10"></use>
                </g>
            </g>
        </g>
    </g>
</svg>