<?xml version="1.0" encoding="utf-8"?>
<svg version="1.1" xmlns:xlink="http://www.w3.org/1999/xlink" width="131px" height="30px" xmlns="http://www.w3.org/2000/svg">
  <defs>
    <mask fill="white" id="clip34">
      <path d="M 0 30  L 0 0  L 87.9850746268657 0  L 131 0  L 131 30  L 82.1194029850746 30  L 0 30  Z " fill-rule="evenodd" />
    </mask>
  </defs>
  <g transform="matrix(1 0 0 1 -339 -210 )">
    <path d="M 0 30  L 0 0  L 87.9850746268657 0  L 131 0  L 131 30  L 82.1194029850746 30  L 0 30  Z " fill-rule="nonzero" fill="#ffffff" stroke="none" transform="matrix(1 0 0 1 339 210 )" />
    <path d="M 0 30  L 0 0  L 87.9850746268657 0  L 131 0  L 131 30  L 82.1194029850746 30  L 0 30  Z " stroke-width="2" stroke="#aaaaaa" fill="none" transform="matrix(1 0 0 1 339 210 )" mask="url(#clip34)" />
  </g>
</svg>