<?xml version="1.0" encoding="utf-8"?>
<svg version="1.1" xmlns:xlink="http://www.w3.org/1999/xlink" width="103px" height="30px" xmlns="http://www.w3.org/2000/svg">
  <defs>
    <mask fill="white" id="clip37">
      <path d="M 0 30  L 0 0  L 77.2191780821918 0  L 83.3835616438356 0  L 103 0  L 103 30  L 0 30  Z " fill-rule="evenodd" />
    </mask>
  </defs>
  <g transform="matrix(1 0 0 1 -931 -355 )">
    <path d="M 0 30  L 0 0  L 77.2191780821918 0  L 83.3835616438356 0  L 103 0  L 103 30  L 0 30  Z " fill-rule="nonzero" fill="#ffffff" stroke="none" transform="matrix(1 0 0 1 931 355 )" />
    <path d="M 0 30  L 0 0  L 77.2191780821918 0  L 83.3835616438356 0  L 103 0  L 103 30  L 0 30  Z " stroke-width="2" stroke="#aaaaaa" fill="none" transform="matrix(1 0 0 1 931 355 )" mask="url(#clip37)" />
  </g>
</svg>