<?xml version="1.0" encoding="utf-8"?>
<svg version="1.1" xmlns:xlink="http://www.w3.org/1999/xlink" width="35px" height="35px" xmlns="http://www.w3.org/2000/svg">
  <g transform="matrix(1 0 0 1 -1046 -95 )">
    <path d="M 28.7337239583333 19.9837239583333  C 29.0223524305556 19.6950954861111  29.1666666666667 19.3532986111111  29.1666666666667 18.9583333333333  L 29.1666666666667 16.0416666666667  C 29.1666666666667 15.6467013888889  29.0223524305556 15.3049045138889  28.7337239583333 15.0162760416667  C 28.4450954861111 14.7276475694444  28.1032986111111 14.5833333333333  27.7083333333333 14.5833333333333  L 20.4166666666667 14.5833333333333  L 20.4166666666667 7.29166666666667  C 20.4166666666667 6.89670138888889  20.2723524305556 6.55490451388889  19.9837239583333 6.26627604166667  C 19.6950954861111 5.97764756944444  19.3532986111111 5.83333333333333  18.9583333333333 5.83333333333333  L 16.0416666666667 5.83333333333333  C 15.6467013888889 5.83333333333333  15.3049045138889 5.97764756944444  15.0162760416667 6.26627604166667  C 14.7276475694444 6.55490451388889  14.5833333333333 6.89670138888889  14.5833333333333 7.29166666666667  L 14.5833333333333 14.5833333333333  L 7.29166666666667 14.5833333333333  C 6.89670138888889 14.5833333333333  6.55490451388889 14.7276475694444  6.26627604166667 15.0162760416667  C 5.97764756944445 15.3049045138889  5.83333333333333 15.6467013888889  5.83333333333333 16.0416666666667  L 5.83333333333333 18.9583333333333  C 5.83333333333333 19.3532986111111  5.97764756944445 19.6950954861111  6.26627604166667 19.9837239583333  C 6.55490451388889 20.2723524305556  6.89670138888889 20.4166666666667  7.29166666666667 20.4166666666667  L 14.5833333333333 20.4166666666667  L 14.5833333333333 27.7083333333333  C 14.5833333333333 28.1032986111111  14.7276475694444 28.4450954861111  15.0162760416667 28.7337239583333  C 15.3049045138889 29.0223524305556  15.6467013888889 29.1666666666667  16.0416666666667 29.1666666666667  L 18.9583333333333 29.1666666666667  C 19.3532986111111 29.1666666666667  19.6950954861111 29.0223524305556  19.9837239583333 28.7337239583333  C 20.2723524305556 28.4450954861111  20.4166666666667 28.1032986111111  20.4166666666667 27.7083333333333  L 20.4166666666667 20.4166666666667  L 27.7083333333333 20.4166666666667  C 28.1032986111111 20.4166666666667  28.4450954861111 20.2723524305556  28.7337239583333 19.9837239583333  Z M 33.0745442708333 1.92545572916667  C 34.3581814236111 3.20909288194444  35 4.75477430555555  35 6.5625  L 35 28.4375  C 35 30.2452256944444  34.3581814236111 31.7909071180556  33.0745442708333 33.0745442708333  C 31.7909071180556 34.3581814236111  30.2452256944445 35  28.4375 35  L 6.5625 35  C 4.75477430555556 35  3.20909288194444 34.3581814236111  1.92545572916667 33.0745442708333  C 0.641818576388889 31.7909071180556  0 30.2452256944444  0 28.4375  L 0 6.5625  C 0 4.75477430555555  0.641818576388889 3.20909288194444  1.92545572916667 1.92545572916667  C 3.20909288194444 0.641818576388887  4.75477430555556 0  6.5625 0  L 28.4375 0  C 30.2452256944445 0  31.7909071180556 0.641818576388887  33.0745442708333 1.92545572916667  Z " fill-rule="nonzero" fill="#169bd5" stroke="none" transform="matrix(1 0 0 1 1046 95 )" />
  </g>
</svg>