<?xml version="1.0" encoding="utf-8"?>
<svg version="1.1" xmlns:xlink="http://www.w3.org/1999/xlink" width="247px" height="30px" xmlns="http://www.w3.org/2000/svg">
  <defs>
    <mask fill="white" id="clip77">
      <path d="M 0 30  L 0 0  L 165.89552238806 0  L 247 0  L 247 30  L 154.835820895522 30  L 0 30  Z " fill-rule="evenodd" />
    </mask>
  </defs>
  <g transform="matrix(1 0 0 1 -545 -241 )">
    <path d="M 0 30  L 0 0  L 165.89552238806 0  L 247 0  L 247 30  L 154.835820895522 30  L 0 30  Z " fill-rule="nonzero" fill="#ffffff" stroke="none" transform="matrix(1 0 0 1 545 241 )" />
    <path d="M 0 30  L 0 0  L 165.89552238806 0  L 247 0  L 247 30  L 154.835820895522 30  L 0 30  Z " stroke-width="2" stroke="#aaaaaa" fill="none" transform="matrix(1 0 0 1 545 241 )" mask="url(#clip77)" />
  </g>
</svg>