<?xml version="1.0" encoding="utf-8"?>
<svg version="1.1" xmlns:xlink="http://www.w3.org/1999/xlink" width="54px" height="24px" xmlns="http://www.w3.org/2000/svg">
  <defs>
    <mask fill="white" id="clip33">
      <path d="M 12 24  C 5.27999999999997 24  0 18.72  0 12  C 0 5.27999999999997  5.27999999999997 0  12 0  L 42 0  C 48.72 0  54 5.27999999999997  54 12  C 54 13.948957892737  53.5558800431093 15.7767921608676  52.7613166547935 17.3898262789256  C 50.8162282582352 21.3385281602675  46.7710421072629 24  42 24  L 12 24  Z " fill-rule="evenodd" />
    </mask>
  </defs>
  <g transform="matrix(1 0 0 1 -853 -61 )">
    <path d="M 12 24  C 5.27999999999997 24  0 18.72  0 12  C 0 5.27999999999997  5.27999999999997 0  12 0  L 42 0  C 48.72 0  54 5.27999999999997  54 12  C 54 13.948957892737  53.5558800431093 15.7767921608676  52.7613166547935 17.3898262789256  C 50.8162282582352 21.3385281602675  46.7710421072629 24  42 24  L 12 24  Z " fill-rule="nonzero" fill="#5fb878" stroke="none" transform="matrix(1 0 0 1 853 61 )" />
    <path d="M 12 24  C 5.27999999999997 24  0 18.72  0 12  C 0 5.27999999999997  5.27999999999997 0  12 0  L 42 0  C 48.72 0  54 5.27999999999997  54 12  C 54 13.948957892737  53.5558800431093 15.7767921608676  52.7613166547935 17.3898262789256  C 50.8162282582352 21.3385281602675  46.7710421072629 24  42 24  L 12 24  Z " stroke-width="2" stroke="#5fb878" fill="none" transform="matrix(1 0 0 1 853 61 )" mask="url(#clip33)" />
  </g>
</svg>