<?xml version="1.0" encoding="utf-8"?>
<svg version="1.1" xmlns:xlink="http://www.w3.org/1999/xlink" width="489px" height="47px" xmlns="http://www.w3.org/2000/svg">
  <defs>
    <mask fill="white" id="clip35">
      <path d="M 0 47  L 0 0  L 328.432835820896 0  L 489 0  L 489 47  L 306.537313432836 47  L 0 47  Z " fill-rule="evenodd" />
    </mask>
  </defs>
  <g transform="matrix(1 0 0 1 -275 -87 )">
    <path d="M 0 47  L 0 0  L 328.432835820896 0  L 489 0  L 489 47  L 306.537313432836 47  L 0 47  Z " fill-rule="nonzero" fill="#ffffff" stroke="none" transform="matrix(1 0 0 1 275 87 )" />
    <path d="M 0 47  L 0 0  L 328.432835820896 0  L 489 0  L 489 47  L 306.537313432836 47  L 0 47  Z " stroke-width="2" stroke="#aaaaaa" fill="none" transform="matrix(1 0 0 1 275 87 )" mask="url(#clip35)" />
  </g>
</svg>