<?xml version="1.0" encoding="utf-8"?>
<svg version="1.1" xmlns:xlink="http://www.w3.org/1999/xlink" width="37px" height="20px" xmlns="http://www.w3.org/2000/svg">
  <defs>
    <mask fill="white" id="clip38">
      <path d="M 0 15  L 0 5  C 0 2.19999999999999  1.98536585365858 0  4.51219512195122 0  L 18.9512195121951 0  L 32.4878048780488 0  C 35.0146341463414 0  37 2.19999999999999  37 5  L 37 15  C 37 17.8  35.0146341463414 20  32.4878048780488 20  L 4.51219512195122 20  C 1.98536585365858 20  0 17.8  0 15  Z " fill-rule="evenodd" />
    </mask>
  </defs>
  <g transform="matrix(1 0 0 1 -1149 -188 )">
    <path d="M 0 15  L 0 5  C 0 2.19999999999999  1.98536585365858 0  4.51219512195122 0  L 18.9512195121951 0  L 32.4878048780488 0  C 35.0146341463414 0  37 2.19999999999999  37 5  L 37 15  C 37 17.8  35.0146341463414 20  32.4878048780488 20  L 4.51219512195122 20  C 1.98536585365858 20  0 17.8  0 15  Z " fill-rule="nonzero" fill="#ffffff" stroke="none" transform="matrix(1 0 0 1 1149 188 )" />
    <path d="M 0 15  L 0 5  C 0 2.19999999999999  1.98536585365858 0  4.51219512195122 0  L 18.9512195121951 0  L 32.4878048780488 0  C 35.0146341463414 0  37 2.19999999999999  37 5  L 37 15  C 37 17.8  35.0146341463414 20  32.4878048780488 20  L 4.51219512195122 20  C 1.98536585365858 20  0 17.8  0 15  Z " stroke-width="2" stroke="#d7d7d7" fill="none" transform="matrix(1 0 0 1 1149 188 )" mask="url(#clip38)" />
  </g>
</svg>