<?xml version="1.0" encoding="utf-8"?>
<svg version="1.1" xmlns:xlink="http://www.w3.org/1999/xlink" width="69px" height="30px" xmlns="http://www.w3.org/2000/svg">
  <defs>
    <mask fill="white" id="clip39">
      <path d="M 0 30  L 0 0  L 46.3432835820896 0  L 69 0  L 69 30  L 43.2537313432836 30  L 0 30  Z " fill-rule="evenodd" />
    </mask>
  </defs>
  <g transform="matrix(1 0 0 1 -276 -212 )">
    <path d="M 0 30  L 0 0  L 46.3432835820896 0  L 69 0  L 69 30  L 43.2537313432836 30  L 0 30  Z " fill-rule="nonzero" fill="#ffffff" stroke="none" transform="matrix(1 0 0 1 276 212 )" />
    <path d="M 0 30  L 0 0  L 46.3432835820896 0  L 69 0  L 69 30  L 43.2537313432836 30  L 0 30  Z " stroke-width="2" stroke="#aaaaaa" fill="none" transform="matrix(1 0 0 1 276 212 )" mask="url(#clip39)" />
  </g>
</svg>