<?xml version="1.0" encoding="utf-8"?>
<svg version="1.1" xmlns:xlink="http://www.w3.org/1999/xlink" width="90px" height="30px" xmlns="http://www.w3.org/2000/svg">
  <defs>
    <mask fill="white" id="clip50">
      <path d="M 0 30  L 0 0  L 60.4477611940299 0  L 90 0  L 90 30  L 56.4179104477612 30  L 0 30  Z " fill-rule="evenodd" />
    </mask>
  </defs>
  <g transform="matrix(1 0 0 1 -1114 -58 )">
    <path d="M 0 30  L 0 0  L 60.4477611940299 0  L 90 0  L 90 30  L 56.4179104477612 30  L 0 30  Z " fill-rule="nonzero" fill="#ffffff" stroke="none" transform="matrix(1 0 0 1 1114 58 )" />
    <path d="M 0 30  L 0 0  L 60.4477611940299 0  L 90 0  L 90 30  L 56.4179104477612 30  L 0 30  Z " stroke-width="2" stroke="#aaaaaa" fill="none" transform="matrix(1 0 0 1 1114 58 )" mask="url(#clip50)" />
  </g>
</svg>