<?xml version="1.0" encoding="utf-8"?>
<svg version="1.1" xmlns:xlink="http://www.w3.org/1999/xlink" width="12px" height="12px" viewBox="125 83.5  12 12" xmlns="http://www.w3.org/2000/svg">
  <path d="M 131 83.5  C 134.36 83.5  137 86.14  137 89.5  C 137 92.86  134.36 95.5  131 95.5  C 127.64 95.5  125 92.86  125 89.5  C 125 86.14  127.64 83.5  131 83.5  Z " fill-rule="nonzero" fill="#ffffff" stroke="none" />
  <path d="M 131 84  C 134.08 84  136.5 86.42  136.5 89.5  C 136.5 92.58  134.08 95  131 95  C 127.92 95  125.5 92.58  125.5 89.5  C 125.5 86.42  127.92 84  131 84  Z " stroke-width="1" stroke="#797979" fill="none" />
  <path d="M 131 92.5  C 129.32 92.5  128 91.18  128 89.5  C 128 87.82  129.32 86.5  131 86.5  C 132.68 86.5  134 87.82  134 89.5  C 134 91.18  132.68 92.5  131 92.5  " fill-rule="nonzero" fill="#797979" stroke="none" />
</svg>