<?xml version="1.0" encoding="utf-8"?>
<svg version="1.1" xmlns:xlink="http://www.w3.org/1999/xlink" width="390px" height="30px" xmlns="http://www.w3.org/2000/svg">
  <defs>
    <mask fill="white" id="clip131">
      <path d="M 0 30  L 0 0  L 261.940298507463 0  L 390 0  L 390 30  L 244.477611940299 30  L 0 30  Z " fill-rule="evenodd" />
    </mask>
  </defs>
  <g transform="matrix(1 0 0 1 -1273 -58 )">
    <path d="M 0 30  L 0 0  L 261.940298507463 0  L 390 0  L 390 30  L 244.477611940299 30  L 0 30  Z " fill-rule="nonzero" fill="#ffffff" stroke="none" transform="matrix(1 0 0 1 1273 58 )" />
    <path d="M 0 30  L 0 0  L 261.940298507463 0  L 390 0  L 390 30  L 244.477611940299 30  L 0 30  Z " stroke-width="2" stroke="#aaaaaa" fill="none" transform="matrix(1 0 0 1 1273 58 )" mask="url(#clip131)" />
  </g>
</svg>