<?xml version="1.0" encoding="utf-8"?>
<svg version="1.1" xmlns:xlink="http://www.w3.org/1999/xlink" width="12px" height="12px" viewBox="381 1063.5  12 12" xmlns="http://www.w3.org/2000/svg">
  <path d="M 387 1063.5  C 390.36 1063.5  393 1066.14  393 1069.5  C 393 1072.86  390.36 1075.5  387 1075.5  C 383.64 1075.5  381 1072.86  381 1069.5  C 381 1066.14  383.64 1063.5  387 1063.5  Z " fill-rule="nonzero" fill="#f0f0f0" stroke="none" />
  <path d="M 387 1064  C 390.08 1064  392.5 1066.42  392.5 1069.5  C 392.5 1072.58  390.08 1075  387 1075  C 383.92 1075  381.5 1072.58  381.5 1069.5  C 381.5 1066.42  383.92 1064  387 1064  Z " stroke-width="1" stroke="#797979" fill="none" />
  <path d="M 387 1072.5  C 385.32 1072.5  384 1071.18  384 1069.5  C 384 1067.82  385.32 1066.5  387 1066.5  C 388.68 1066.5  390 1067.82  390 1069.5  C 390 1071.18  388.68 1072.5  387 1072.5  " fill-rule="nonzero" fill="#797979" stroke="none" />
</svg>