<?xml version="1.0" encoding="utf-8"?>
<svg version="1.1" xmlns:xlink="http://www.w3.org/1999/xlink" width="165px" height="30px" xmlns="http://www.w3.org/2000/svg">
  <defs>
    <mask fill="white" id="clip60">
      <path d="M 0 30  L 0 0  L 110.820895522388 0  L 165 0  L 165 30  L 103.432835820896 30  L 0 30  Z " fill-rule="evenodd" />
    </mask>
  </defs>
  <g transform="matrix(1 0 0 1 -2073 -272 )">
    <path d="M 0 30  L 0 0  L 110.820895522388 0  L 165 0  L 165 30  L 103.432835820896 30  L 0 30  Z " fill-rule="nonzero" fill="#ffffff" stroke="none" transform="matrix(1 0 0 1 2073 272 )" />
    <path d="M 0 30  L 0 0  L 110.820895522388 0  L 165 0  L 165 30  L 103.432835820896 30  L 0 30  Z " stroke-width="2" stroke="#aaaaaa" fill="none" transform="matrix(1 0 0 1 2073 272 )" mask="url(#clip60)" />
  </g>
</svg>