<?xml version="1.0" encoding="utf-8"?>
<svg version="1.1" xmlns:xlink="http://www.w3.org/1999/xlink" width="84px" height="30px" xmlns="http://www.w3.org/2000/svg">
  <defs>
    <mask fill="white" id="clip80">
      <path d="M 0 30  L 0 0  L 56.4179104477612 0  L 84 0  L 84 30  L 52.6567164179105 30  L 0 30  Z " fill-rule="evenodd" />
    </mask>
  </defs>
  <g transform="matrix(1 0 0 1 -550 -255 )">
    <path d="M 0 30  L 0 0  L 56.4179104477612 0  L 84 0  L 84 30  L 52.6567164179105 30  L 0 30  Z " fill-rule="nonzero" fill="#ffffff" stroke="none" transform="matrix(1 0 0 1 550 255 )" />
    <path d="M 0 30  L 0 0  L 56.4179104477612 0  L 84 0  L 84 30  L 52.6567164179105 30  L 0 30  Z " stroke-width="2" stroke="#aaaaaa" fill="none" transform="matrix(1 0 0 1 550 255 )" mask="url(#clip80)" />
  </g>
</svg>