<?xml version="1.0" encoding="utf-8"?>
<svg version="1.1" xmlns:xlink="http://www.w3.org/1999/xlink" width="95px" height="30px" xmlns="http://www.w3.org/2000/svg">
  <defs>
    <mask fill="white" id="clip57">
      <path d="M 0 30  L 0 0  L 63.8059701492537 0  L 95 0  L 95 30  L 59.5522388059702 30  L 0 30  Z " fill-rule="evenodd" />
    </mask>
  </defs>
  <g transform="matrix(1 0 0 1 -296 -113 )">
    <path d="M 0 30  L 0 0  L 63.8059701492537 0  L 95 0  L 95 30  L 59.5522388059702 30  L 0 30  Z " fill-rule="nonzero" fill="#ffffff" stroke="none" transform="matrix(1 0 0 1 296 113 )" />
    <path d="M 0 30  L 0 0  L 63.8059701492537 0  L 95 0  L 95 30  L 59.5522388059702 30  L 0 30  Z " stroke-width="2" stroke="#aaaaaa" fill="none" transform="matrix(1 0 0 1 296 113 )" mask="url(#clip57)" />
  </g>
</svg>