<?xml version="1.0" encoding="utf-8"?>
<svg version="1.1" xmlns:xlink="http://www.w3.org/1999/xlink" width="145px" height="30px" xmlns="http://www.w3.org/2000/svg">
  <defs>
    <mask fill="white" id="clip65">
      <path d="M 0 30  L 0 0  L 97.3880597014926 0  L 145 0  L 145 30  L 90.8955223880597 30  L 0 30  Z " fill-rule="evenodd" />
    </mask>
  </defs>
  <g transform="matrix(1 0 0 1 -203 -58 )">
    <path d="M 0 30  L 0 0  L 97.3880597014926 0  L 145 0  L 145 30  L 90.8955223880597 30  L 0 30  Z " fill-rule="nonzero" fill="#ffffff" stroke="none" transform="matrix(1 0 0 1 203 58 )" />
    <path d="M 0 30  L 0 0  L 97.3880597014926 0  L 145 0  L 145 30  L 90.8955223880597 30  L 0 30  Z " stroke-width="2" stroke="#aaaaaa" fill="none" transform="matrix(1 0 0 1 203 58 )" mask="url(#clip65)" />
  </g>
</svg>