<?xml version="1.0" encoding="utf-8"?>
<svg version="1.1" xmlns:xlink="http://www.w3.org/1999/xlink" width="107px" height="30px" xmlns="http://www.w3.org/2000/svg">
  <defs>
    <mask fill="white" id="clip16">
      <path d="M 0 30  L 0 0  L 71.8656716417911 0  L 107 0  L 107 30  L 67.0746268656716 30  L 0 30  Z " fill-rule="evenodd" />
    </mask>
  </defs>
  <g transform="matrix(1 0 0 1 -268 -58 )">
    <path d="M 0 30  L 0 0  L 71.8656716417911 0  L 107 0  L 107 30  L 67.0746268656716 30  L 0 30  Z " fill-rule="nonzero" fill="#ffffff" stroke="none" transform="matrix(1 0 0 1 268 58 )" />
    <path d="M 0 30  L 0 0  L 71.8656716417911 0  L 107 0  L 107 30  L 67.0746268656716 30  L 0 30  Z " stroke-width="2" stroke="#aaaaaa" fill="none" transform="matrix(1 0 0 1 268 58 )" mask="url(#clip16)" />
  </g>
</svg>