<?xml version="1.0" encoding="utf-8"?>
<svg version="1.1" xmlns:xlink="http://www.w3.org/1999/xlink" width="50px" height="30px" xmlns="http://www.w3.org/2000/svg">
  <defs>
    <mask fill="white" id="clip121">
      <path d="M 0 30  L 0 0  L 33.5820895522388 0  L 50 0  L 50 30  L 31.3432835820896 30  L 0 30  Z " fill-rule="evenodd" />
    </mask>
  </defs>
  <g transform="matrix(1 0 0 1 -936 -212 )">
    <path d="M 0 30  L 0 0  L 33.5820895522388 0  L 50 0  L 50 30  L 31.3432835820896 30  L 0 30  Z " fill-rule="nonzero" fill="#ffffff" stroke="none" transform="matrix(1 0 0 1 936 212 )" />
    <path d="M 0 30  L 0 0  L 33.5820895522388 0  L 50 0  L 50 30  L 31.3432835820896 30  L 0 30  Z " stroke-width="2" stroke="#aaaaaa" fill="none" transform="matrix(1 0 0 1 936 212 )" mask="url(#clip121)" />
  </g>
</svg>