<?xml version="1.0" encoding="utf-8"?>
<svg version="1.1" xmlns:xlink="http://www.w3.org/1999/xlink" width="12px" height="12px" viewBox="287 91.5  12 12" xmlns="http://www.w3.org/2000/svg">
  <path d="M 293 91.5  C 296.36 91.5  299 94.14  299 97.5  C 299 100.86  296.36 103.5  293 103.5  C 289.64 103.5  287 100.86  287 97.5  C 287 94.14  289.64 91.5  293 91.5  Z " fill-rule="nonzero" fill="#f0f0f0" stroke="none" />
  <path d="M 293 92  C 296.08 92  298.5 94.42  298.5 97.5  C 298.5 100.58  296.08 103  293 103  C 289.92 103  287.5 100.58  287.5 97.5  C 287.5 94.42  289.92 92  293 92  Z " stroke-width="1" stroke="#797979" fill="none" />
  <path d="M 293 100.5  C 291.32 100.5  290 99.18  290 97.5  C 290 95.82  291.32 94.5  293 94.5  C 294.68 94.5  296 95.82  296 97.5  C 296 99.18  294.68 100.5  293 100.5  " fill-rule="nonzero" fill="#797979" stroke="none" />
</svg>