<?xml version="1.0" encoding="utf-8"?>
<svg version="1.1" xmlns:xlink="http://www.w3.org/1999/xlink" width="12px" height="12px" viewBox="125 91.5  12 12" xmlns="http://www.w3.org/2000/svg">
  <path d="M 131 91.5  C 134.36 91.5  137 94.14  137 97.5  C 137 100.86  134.36 103.5  131 103.5  C 127.64 103.5  125 100.86  125 97.5  C 125 94.14  127.64 91.5  131 91.5  Z " fill-rule="nonzero" fill="#ffffff" stroke="none" />
  <path d="M 131 92  C 134.08 92  136.5 94.42  136.5 97.5  C 136.5 100.58  134.08 103  131 103  C 127.92 103  125.5 100.58  125.5 97.5  C 125.5 94.42  127.92 92  131 92  Z " stroke-width="1" stroke="#797979" fill="none" />
  <path d="M 131 100.5  C 129.32 100.5  128 99.18  128 97.5  C 128 95.82  129.32 94.5  131 94.5  C 132.68 94.5  134 95.82  134 97.5  C 134 99.18  132.68 100.5  131 100.5  " fill-rule="nonzero" fill="#797979" stroke="none" />
</svg>