<?xml version="1.0" encoding="utf-8"?>
<svg version="1.1" xmlns:xlink="http://www.w3.org/1999/xlink" width="21px" height="21px" xmlns="http://www.w3.org/2000/svg">
  <g transform="matrix(1 0 0 1 -56 -936 )">
    <path d="M 20.947021484375 10.49658203125  C 20.9472351074219 4.728759765625  16.264404296875 0.052764892578126  10.488037109375 0.052764892578125  C 4.711669921875 0.052764892578125  0.0290527343749994 4.72854614257813  0.0290527343749994 10.49658203125  C 0.0290527343749994 14.2277221679688  2.0225830078125 17.6753845214844  5.258544921875 19.5411682128906  C 8.49472045898438 21.40673828125  12.4815673828125 21.40673828125  15.717529296875 19.5411682128906  C 18.9537048339844 17.6755981445313  20.947021484375 14.2279357910156  20.947021484375 10.49658203125  Z M 11.650146484375 15.1383972167969  C 11.650146484375 15.779052734375  11.1299743652344 16.2987976074219  10.488037109375 16.2987976074219  C 9.8463134765625 16.2987976074219  9.325927734375 15.7792663574219  9.325927734375 15.1383972167969  C 9.325927734375 14.7239685058594  9.54745483398438 14.3407287597656  9.906982421875 14.1335144042969  C 10.2665100097656 13.9263000488281  10.7095642089844 13.9263000488281  11.069091796875 14.1335144042969  C 11.4286193847656 14.3407287597656  11.650146484375 14.7239685058594  11.650146484375 15.1383972167969  Z M 11.650146484375 5.85498046875  L 11.650146484375 11.656982421875  C 11.650146484375 12.3531799316406  11.185302734375 12.8173828125  10.488037109375 12.8173828125  C 9.790771484375 12.8173828125  9.325927734375 12.3531799316406  9.325927734375 11.656982421875  L 9.325927734375 5.85498046875  C 9.325927734375 5.15878295898438  9.790771484375 4.694580078125  10.488037109375 4.694580078125  C 11.185302734375 4.694580078125  11.650146484375 5.15878295898438  11.650146484375 5.85498046875  Z " fill-rule="nonzero" fill="#f57575" stroke="none" transform="matrix(1 0 0 1 56 936 )" />
  </g>
</svg>