<?xml version="1.0" encoding="utf-8"?>
<svg version="1.1" xmlns:xlink="http://www.w3.org/1999/xlink" width="12px" height="12px" viewBox="125 74.5  12 12" xmlns="http://www.w3.org/2000/svg">
  <path d="M 131 74.5  C 134.36 74.5  137 77.14  137 80.5  C 137 83.86  134.36 86.5  131 86.5  C 127.64 86.5  125 83.86  125 80.5  C 125 77.14  127.64 74.5  131 74.5  Z " fill-rule="nonzero" fill="#f0f0f0" stroke="none" />
  <path d="M 131 75  C 134.08 75  136.5 77.42  136.5 80.5  C 136.5 83.58  134.08 86  131 86  C 127.92 86  125.5 83.58  125.5 80.5  C 125.5 77.42  127.92 75  131 75  Z " stroke-width="1" stroke="#797979" fill="none" />
  <path d="M 131 83.5  C 129.32 83.5  128 82.18  128 80.5  C 128 78.82  129.32 77.5  131 77.5  C 132.68 77.5  134 78.82  134 80.5  C 134 82.18  132.68 83.5  131 83.5  " fill-rule="nonzero" fill="#797979" stroke="none" />
</svg>