<?xml version="1.0" encoding="utf-8"?>
<svg version="1.1" xmlns:xlink="http://www.w3.org/1999/xlink" width="12px" height="12px" viewBox="325 83.5  12 12" xmlns="http://www.w3.org/2000/svg">
  <path d="M 331 83.5  C 334.36 83.5  337 86.14  337 89.5  C 337 92.86  334.36 95.5  331 95.5  C 327.64 95.5  325 92.86  325 89.5  C 325 86.14  327.64 83.5  331 83.5  Z " fill-rule="nonzero" fill="#f0f0f0" stroke="none" />
  <path d="M 331 84  C 334.08 84  336.5 86.42  336.5 89.5  C 336.5 92.58  334.08 95  331 95  C 327.92 95  325.5 92.58  325.5 89.5  C 325.5 86.42  327.92 84  331 84  Z " stroke-width="1" stroke="#797979" fill="none" />
  <path d="M 331 92.5  C 329.32 92.5  328 91.18  328 89.5  C 328 87.82  329.32 86.5  331 86.5  C 332.68 86.5  334 87.82  334 89.5  C 334 91.18  332.68 92.5  331 92.5  " fill-rule="nonzero" fill="#797979" stroke="none" />
</svg>