<?xml version="1.0" encoding="utf-8"?>
<svg version="1.1" xmlns:xlink="http://www.w3.org/1999/xlink" width="148px" height="30px" xmlns="http://www.w3.org/2000/svg">
  <defs>
    <mask fill="white" id="clip67">
      <path d="M 0 30  L 0 0  L 99.4029850746269 0  L 148 0  L 148 30  L 92.7761194029851 30  L 0 30  Z " fill-rule="evenodd" />
    </mask>
  </defs>
  <g transform="matrix(1 0 0 1 -503 -30 )">
    <path d="M 0 30  L 0 0  L 99.4029850746269 0  L 148 0  L 148 30  L 92.7761194029851 30  L 0 30  Z " fill-rule="nonzero" fill="#ffffff" stroke="none" transform="matrix(1 0 0 1 503 30 )" />
    <path d="M 0 30  L 0 0  L 99.4029850746269 0  L 148 0  L 148 30  L 92.7761194029851 30  L 0 30  Z " stroke-width="2" stroke="#aaaaaa" fill="none" transform="matrix(1 0 0 1 503 30 )" mask="url(#clip67)" />
  </g>
</svg>