<?xml version="1.0" encoding="utf-8"?>
<svg version="1.1" xmlns:xlink="http://www.w3.org/1999/xlink" width="355px" height="30px" xmlns="http://www.w3.org/2000/svg">
  <defs>
    <mask fill="white" id="clip3">
      <path d="M 0 30  L 0 0  L 238.432835820896 0  L 355 0  L 355 30  L 222.537313432836 30  L 0 30  Z " fill-rule="evenodd" />
    </mask>
  </defs>
  <g transform="matrix(1 0 0 1 -552 -238 )">
    <path d="M 0 30  L 0 0  L 238.432835820896 0  L 355 0  L 355 30  L 222.537313432836 30  L 0 30  Z " fill-rule="nonzero" fill="#ffffff" stroke="none" transform="matrix(1 0 0 1 552 238 )" />
    <path d="M 0 30  L 0 0  L 238.432835820896 0  L 355 0  L 355 30  L 222.537313432836 30  L 0 30  Z " stroke-width="2" stroke="#aaaaaa" fill="none" transform="matrix(1 0 0 1 552 238 )" mask="url(#clip3)" />
  </g>
</svg>