<?xml version="1.0" encoding="utf-8"?>
<svg version="1.1" xmlns:xlink="http://www.w3.org/1999/xlink" width="12px" height="12px" viewBox="272 1063.5  12 12" xmlns="http://www.w3.org/2000/svg">
  <path d="M 278 1063.5  C 281.36 1063.5  284 1066.14  284 1069.5  C 284 1072.86  281.36 1075.5  278 1075.5  C 274.64 1075.5  272 1072.86  272 1069.5  C 272 1066.14  274.64 1063.5  278 1063.5  Z " fill-rule="nonzero" fill="#ffffff" stroke="none" />
  <path d="M 278 1064  C 281.08 1064  283.5 1066.42  283.5 1069.5  C 283.5 1072.58  281.08 1075  278 1075  C 274.92 1075  272.5 1072.58  272.5 1069.5  C 272.5 1066.42  274.92 1064  278 1064  Z " stroke-width="1" stroke="#797979" fill="none" />
  <path d="M 278 1072.5  C 276.32 1072.5  275 1071.18  275 1069.5  C 275 1067.82  276.32 1066.5  278 1066.5  C 279.68 1066.5  281 1067.82  281 1069.5  C 281 1071.18  279.68 1072.5  278 1072.5  " fill-rule="nonzero" fill="#797979" stroke="none" />
</svg>