<?xml version="1.0" encoding="utf-8"?>
<svg version="1.1" xmlns:xlink="http://www.w3.org/1999/xlink" width="12px" height="12px" viewBox="382 1063.5  12 12" xmlns="http://www.w3.org/2000/svg">
  <path d="M 388 1063.5  C 391.36 1063.5  394 1066.14  394 1069.5  C 394 1072.86  391.36 1075.5  388 1075.5  C 384.64 1075.5  382 1072.86  382 1069.5  C 382 1066.14  384.64 1063.5  388 1063.5  Z " fill-rule="nonzero" fill="#f0f0f0" stroke="none" />
  <path d="M 388 1064  C 391.08 1064  393.5 1066.42  393.5 1069.5  C 393.5 1072.58  391.08 1075  388 1075  C 384.92 1075  382.5 1072.58  382.5 1069.5  C 382.5 1066.42  384.92 1064  388 1064  Z " stroke-width="1" stroke="#797979" fill="none" />
  <path d="M 388 1072.5  C 386.32 1072.5  385 1071.18  385 1069.5  C 385 1067.82  386.32 1066.5  388 1066.5  C 389.68 1066.5  391 1067.82  391 1069.5  C 391 1071.18  389.68 1072.5  388 1072.5  " fill-rule="nonzero" fill="#797979" stroke="none" />
</svg>