<?xml version="1.0" encoding="utf-8"?>
<svg version="1.1" xmlns:xlink="http://www.w3.org/1999/xlink" width="12px" height="12px" viewBox="486 1063.5  12 12" xmlns="http://www.w3.org/2000/svg">
  <path d="M 492 1063.5  C 495.36 1063.5  498 1066.14  498 1069.5  C 498 1072.86  495.36 1075.5  492 1075.5  C 488.64 1075.5  486 1072.86  486 1069.5  C 486 1066.14  488.64 1063.5  492 1063.5  Z " fill-rule="nonzero" fill="#f0f0f0" stroke="none" />
  <path d="M 492 1064  C 495.08 1064  497.5 1066.42  497.5 1069.5  C 497.5 1072.58  495.08 1075  492 1075  C 488.92 1075  486.5 1072.58  486.5 1069.5  C 486.5 1066.42  488.92 1064  492 1064  Z " stroke-width="1" stroke="#797979" fill="none" />
  <path d="M 492 1072.5  C 490.32 1072.5  489 1071.18  489 1069.5  C 489 1067.82  490.32 1066.5  492 1066.5  C 493.68 1066.5  495 1067.82  495 1069.5  C 495 1071.18  493.68 1072.5  492 1072.5  " fill-rule="nonzero" fill="#797979" stroke="none" />
</svg>