<?xml version="1.0" encoding="utf-8"?>
<svg version="1.1" xmlns:xlink="http://www.w3.org/1999/xlink" width="12px" height="12px" viewBox="125 948.5  12 12" xmlns="http://www.w3.org/2000/svg">
  <path d="M 131 948.5  C 134.36 948.5  137 951.14  137 954.5  C 137 957.86  134.36 960.5  131 960.5  C 127.64 960.5  125 957.86  125 954.5  C 125 951.14  127.64 948.5  131 948.5  Z " fill-rule="nonzero" fill="#ffffff" stroke="none" />
  <path d="M 131 949  C 134.08 949  136.5 951.42  136.5 954.5  C 136.5 957.58  134.08 960  131 960  C 127.92 960  125.5 957.58  125.5 954.5  C 125.5 951.42  127.92 949  131 949  Z " stroke-width="1" stroke="#797979" fill="none" />
  <path d="M 131 957.5  C 129.32 957.5  128 956.18  128 954.5  C 128 952.82  129.32 951.5  131 951.5  C 132.68 951.5  134 952.82  134 954.5  C 134 956.18  132.68 957.5  131 957.5  " fill-rule="nonzero" fill="#797979" stroke="none" />
</svg>