<?xml version="1.0" encoding="utf-8"?>
<svg version="1.1" xmlns:xlink="http://www.w3.org/1999/xlink" width="6px" height="9px" xmlns="http://www.w3.org/2000/svg">
  <g transform="matrix(1 0 0 1 -81 -371 )">
    <path d="M 0.118803879310346 6.62770113031915  L 2.11705280172414 8.58186502659574  C 2.34536637931034 8.80439660904255  2.66662176724138 8.93155751329787  2.99797952586207 8.93155751329787  C 3.32933728448276 8.93155751329787  3.65059267241379 8.80439660904256  3.87890625 8.57999501329788  L 5.88119612068966 6.62209109042553  C 6.03475215517241 6.47249002659575  6.02667025862069 6.23499833776596  5.86503232758621 6.09287732712766  C 5.70339439655173 5.95075631648936  5.44679418103448 5.95823636968085  5.29323814655173 6.10783743351064  L 3.40207435344828 7.95728058510638  L 3.40207435344828 0.37998670212766  C 3.40207435344828 0.174285239361702  3.22023168103448 0.00598404255319149  2.99797952586207 0.00598404255319149  C 2.77572737068966 0.00598404255319149  2.59388469827586 0.174285239361702  2.59388469827586 0.37998670212766  L 2.59388469827586 7.95728058510638  L 0.706761853448279 6.11344747340426  C 0.553205818965519 5.96384640957447  0.296605603448277 5.95636635638298  0.134967672413795 6.09848736702128  C -0.0266702586206882 6.24060837765958  -0.0347521551724109 6.47810006648936  0.118803879310346 6.62770113031915  Z " fill-rule="nonzero" fill="#ffffff" stroke="none" transform="matrix(1 0 0 1 81 371 )" />
  </g>
</svg>