<?xml version="1.0" encoding="utf-8"?>
<svg version="1.1" xmlns:xlink="http://www.w3.org/1999/xlink" width="4px" height="4px" xmlns="http://www.w3.org/2000/svg">
  <g transform="matrix(1 0 0 1 -1030 -177 )">
    <path d="M 1032 177  C 1033.12 177  1034 177.88  1034 179  C 1034 180.12  1033.12 181  1032 181  C 1030.88 181  1030 180.12  1030 179  C 1030 177.88  1030.88 177  1032 177  Z " fill-rule="nonzero" fill="#367cab" stroke="none" />
    <path d="M 1032 177.5  C 1032.84 177.5  1033.5 178.16  1033.5 179  C 1033.5 179.84  1032.84 180.5  1032 180.5  C 1031.16 180.5  1030.5 179.84  1030.5 179  C 1030.5 178.16  1031.16 177.5  1032 177.5  Z " stroke-width="1" stroke="#d7d7d7" fill="none" />
  </g>
</svg>