<?xml version="1.0" encoding="utf-8"?>
<svg version="1.1" xmlns:xlink="http://www.w3.org/1999/xlink" width="4px" height="4px" xmlns="http://www.w3.org/2000/svg">
  <g transform="matrix(1 0 0 1 -870 -284 )">
    <path d="M 872 284  C 873.12 284  874 284.88  874 286  C 874 287.12  873.12 288  872 288  C 870.88 288  870 287.12  870 286  C 870 284.88  870.88 284  872 284  Z " fill-rule="nonzero" fill="#6c50f3" stroke="none" />
    <path d="M 872 284.5  C 872.84 284.5  873.5 285.16  873.5 286  C 873.5 286.84  872.84 287.5  872 287.5  C 871.16 287.5  870.5 286.84  870.5 286  C 870.5 285.16  871.16 284.5  872 284.5  Z " stroke-width="1" stroke="#d7d7d7" fill="none" />
  </g>
</svg>