<?xml version="1.0" encoding="utf-8"?>
<svg version="1.1" xmlns:xlink="http://www.w3.org/1999/xlink" width="40px" height="40px" xmlns="http://www.w3.org/2000/svg">
  <g transform="matrix(1 0 0 1 -1254 -45 )">
    <path d="M 39.0572390572391 29.8989898989899  C 39.685746352413 30.5274971941639  40 31.290684624018  40 32.1885521885522  C 40 33.0864197530864  39.685746352413 33.8496071829405  39.0572390572391 34.4781144781145  L 34.4781144781145 39.0572390572391  C 33.8496071829405 39.685746352413  33.0864197530864 40  32.1885521885522 40  C 31.290684624018 40  30.5274971941639 39.685746352413  29.8989898989899 39.0572390572391  L 20 29.1582491582492  L 10.1010101010101 39.0572390572391  C 9.47250280583614 39.685746352413  8.70931537598204 40  7.81144781144781 40  C 6.91358024691358 40  6.15039281705949 39.685746352413  5.52188552188552 39.0572390572391  L 0.942760942760943 34.4781144781145  C 0.314253647586981 33.8496071829405  0 33.0864197530864  0 32.1885521885522  C 0 31.290684624018  0.314253647586981 30.5274971941639  0.942760942760943 29.8989898989899  L 10.8417508417508 20  L 0.942760942760943 10.1010101010101  C 0.314253647586981 9.47250280583614  0 8.70931537598204  0 7.81144781144781  C 0 6.91358024691358  0.314253647586981 6.15039281705948  0.942760942760943 5.52188552188552  L 5.52188552188552 0.942760942760943  C 6.15039281705949 0.314253647586979  6.91358024691358 0  7.81144781144781 0  C 8.70931537598204 0  9.47250280583614 0.314253647586979  10.1010101010101 0.942760942760943  L 20 10.8417508417508  L 29.8989898989899 0.942760942760943  C 30.5274971941639 0.314253647586979  31.290684624018 0  32.1885521885522 0  C 33.0864197530864 0  33.8496071829405 0.314253647586979  34.4781144781145 0.942760942760943  L 39.0572390572391 5.52188552188552  C 39.685746352413 6.15039281705948  40 6.91358024691358  40 7.81144781144781  C 40 8.70931537598204  39.685746352413 9.47250280583614  39.0572390572391 10.1010101010101  L 29.1582491582492 20  L 39.0572390572391 29.8989898989899  Z " fill-rule="nonzero" fill="#ffffff" stroke="none" transform="matrix(1 0 0 1 1254 45 )" />
  </g>
</svg>