<?xml version="1.0" encoding="utf-8"?>
<svg version="1.1" xmlns:xlink="http://www.w3.org/1999/xlink" width="6px" height="11px" xmlns="http://www.w3.org/2000/svg">
  <g transform="matrix(1 0 0 1 -118 -633 )">
    <path d="M 4.92722891566265 5.5  L 0.135180722891567 0.764285714285715  C 0.0562489183654461 0.681464764111875  0.0122942513794029 0.57199312092073  0.0122942513794029 0.458229841614215  C 0.0122942513794029 0.211674149725468  0.214575237901635 0.0118012701856434  0.464101480295066 0.0118012701856434  C 0.5794120987536 0.0118012701856434  0.690358967703445 0.0553657573512345  0.77421686746988 0.133571428571429  L 5.8344578313253 5.13357142857143  C 5.93289876962024 5.23070859678195  5.98821354441308 5.36253403272305  5.98821354441308 5.5  C 5.98821354441308 5.63746596727695  5.93289876962024 5.76929140321805  5.8344578313253 5.86642857142857  L 0.77421686746988 10.8664285714286  C 0.689475405897052 10.9501612060779  0.574541319432335 10.9972017104064  0.454698795180723 10.9972017104064  C 0.205139657415816 10.9972017104064  0.00283200392609122 10.7973024813629  0.00283200392609122 10.5507142857143  C 0.00283200392609122 10.43229845818  0.050439261318739 10.3187326346493  0.135180722891567 10.235  L 4.92795180722892 5.5  Z " fill-rule="nonzero" fill="#5a5a68" stroke="none" transform="matrix(1 0 0 1 118 633 )" />
  </g>
</svg>