<?xml version="1.0" encoding="utf-8"?>
<svg version="1.1" xmlns:xlink="http://www.w3.org/1999/xlink" width="48px" height="20px" xmlns="http://www.w3.org/2000/svg">
  <defs>
    <mask fill="white" id="clip115">
      <path d="M 0 15  L 0 5  C 0 2.19999999999999  2.20000000000005 0  5 0  L 14 0  L 43 0  C 45.8 0  48 2.19999999999999  48 5  L 48 15  C 48 17.8  45.8 20  43 20  L 5 20  C 2.20000000000005 20  0 17.8  0 15  Z " fill-rule="evenodd" />
    </mask>
  </defs>
  <g transform="matrix(1 0 0 1 -1154 -215 )">
    <path d="M 0 15  L 0 5  C 0 2.19999999999999  2.20000000000005 0  5 0  L 14 0  L 43 0  C 45.8 0  48 2.19999999999999  48 5  L 48 15  C 48 17.8  45.8 20  43 20  L 5 20  C 2.20000000000005 20  0 17.8  0 15  Z " fill-rule="nonzero" fill="#ffffff" stroke="none" transform="matrix(1 0 0 1 1154 215 )" />
    <path d="M 0 15  L 0 5  C 0 2.19999999999999  2.20000000000005 0  5 0  L 14 0  L 43 0  C 45.8 0  48 2.19999999999999  48 5  L 48 15  C 48 17.8  45.8 20  43 20  L 5 20  C 2.20000000000005 20  0 17.8  0 15  Z " stroke-width="2" stroke="#d7d7d7" fill="none" transform="matrix(1 0 0 1 1154 215 )" mask="url(#clip115)" />
  </g>
</svg>