<?xml version="1.0" encoding="utf-8"?>
<svg version="1.1" xmlns:xlink="http://www.w3.org/1999/xlink" width="79px" height="20px" xmlns="http://www.w3.org/2000/svg">
  <defs>
    <mask fill="white" id="clip116">
      <path d="M 0 15  L 0 5  C 0 2.19999999999999  4.23902439024399 0  9.63414634146342 0  L 40.4634146341463 0  L 69.3658536585366 0  C 74.760975609756 0  79 2.19999999999999  79 5  L 79 15  C 79 17.8  74.760975609756 20  69.3658536585366 20  L 9.63414634146342 20  C 4.23902439024399 20  0 17.8  0 15  Z " fill-rule="evenodd" />
    </mask>
  </defs>
  <g transform="matrix(1 0 0 1 -945 -273 )">
    <path d="M 0 15  L 0 5  C 0 2.19999999999999  4.23902439024399 0  9.63414634146342 0  L 40.4634146341463 0  L 69.3658536585366 0  C 74.760975609756 0  79 2.19999999999999  79 5  L 79 15  C 79 17.8  74.760975609756 20  69.3658536585366 20  L 9.63414634146342 20  C 4.23902439024399 20  0 17.8  0 15  Z " fill-rule="nonzero" fill="#ffffff" stroke="none" transform="matrix(1 0 0 1 945 273 )" />
    <path d="M 0 15  L 0 5  C 0 2.19999999999999  4.23902439024399 0  9.63414634146342 0  L 40.4634146341463 0  L 69.3658536585366 0  C 74.760975609756 0  79 2.19999999999999  79 5  L 79 15  C 79 17.8  74.760975609756 20  69.3658536585366 20  L 9.63414634146342 20  C 4.23902439024399 20  0 17.8  0 15  Z " stroke-width="2" stroke="#d7d7d7" fill="none" transform="matrix(1 0 0 1 945 273 )" mask="url(#clip116)" />
  </g>
</svg>