<?xml version="1.0" encoding="utf-8"?>
<svg version="1.1" xmlns:xlink="http://www.w3.org/1999/xlink" width="733px" height="30px" xmlns="http://www.w3.org/2000/svg">
  <defs>
    <mask fill="white" id="clip78">
      <path d="M 0 30  L 0 0  L 492.313432835821 0  L 733 0  L 733 30  L 459.492537313433 30  L 0 30  Z " fill-rule="evenodd" />
    </mask>
  </defs>
  <g transform="matrix(1 0 0 1 -1990 -291 )">
    <path d="M 0 30  L 0 0  L 492.313432835821 0  L 733 0  L 733 30  L 459.492537313433 30  L 0 30  Z " fill-rule="nonzero" fill="#ffffff" stroke="none" transform="matrix(1 0 0 1 1990 291 )" />
    <path d="M 0 30  L 0 0  L 492.313432835821 0  L 733 0  L 733 30  L 459.492537313433 30  L 0 30  Z " stroke-width="2" stroke="#aaaaaa" fill="none" transform="matrix(1 0 0 1 1990 291 )" mask="url(#clip78)" />
  </g>
</svg>