<?xml version="1.0" encoding="utf-8"?>
<svg version="1.1" xmlns:xlink="http://www.w3.org/1999/xlink" width="18px" height="20px" xmlns="http://www.w3.org/2000/svg">
  <g transform="matrix(1 0 0 1 -298 -85 )">
    <path d="M 6.43039772727273 7.6171875  C 6.50710227272727 7.6953125  6.54545454545455 7.79513888888889  6.54545454545455 7.91666666666667  L 6.54545454545455 15.4166666666667  C 6.54545454545455 15.5381944444444  6.50710227272727 15.6380208333333  6.43039772727273 15.7161458333333  C 6.35369318181818 15.7942708333333  6.25568181818182 15.8333333333333  6.13636363636364 15.8333333333333  L 5.31818181818182 15.8333333333333  C 5.19886363636364 15.8333333333333  5.10085227272727 15.7942708333333  5.02414772727273 15.7161458333333  C 4.94744318181818 15.6380208333333  4.90909090909091 15.5381944444444  4.90909090909091 15.4166666666667  L 4.90909090909091 7.91666666666667  C 4.90909090909091 7.79513888888889  4.94744318181818 7.6953125  5.02414772727273 7.6171875  C 5.10085227272727 7.5390625  5.19886363636364 7.5  5.31818181818182 7.5  L 6.13636363636364 7.5  C 6.25568181818182 7.5  6.35369318181818 7.5390625  6.43039772727273 7.6171875  Z M 9.703125 7.6171875  C 9.77982954545455 7.6953125  9.81818181818182 7.79513888888889  9.81818181818182 7.91666666666667  L 9.81818181818182 15.4166666666667  C 9.81818181818182 15.5381944444444  9.77982954545455 15.6380208333333  9.703125 15.7161458333333  C 9.62642045454546 15.7942708333333  9.52840909090909 15.8333333333333  9.40909090909091 15.8333333333333  L 8.59090909090909 15.8333333333333  C 8.47159090909091 15.8333333333333  8.37357954545455 15.7942708333333  8.296875 15.7161458333333  C 8.22017045454546 15.6380208333333  8.18181818181818 15.5381944444444  8.18181818181818 15.4166666666667  L 8.18181818181818 7.91666666666667  C 8.18181818181818 7.79513888888889  8.22017045454546 7.6953125  8.296875 7.6171875  C 8.37357954545455 7.5390625  8.47159090909091 7.5  8.59090909090909 7.5  L 9.40909090909091 7.5  C 9.52840909090909 7.5  9.62642045454546 7.5390625  9.703125 7.6171875  Z M 12.9758522727273 7.6171875  C 13.0525568181818 7.6953125  13.0909090909091 7.79513888888889  13.0909090909091 7.91666666666667  L 13.0909090909091 15.4166666666667  C 13.0909090909091 15.5381944444444  13.0525568181818 15.6380208333333  12.9758522727273 15.7161458333333  C 12.8991477272727 15.7942708333333  12.8011363636364 15.8333333333333  12.6818181818182 15.8333333333333  L 11.8636363636364 15.8333333333333  C 11.7443181818182 15.8333333333333  11.6463068181818 15.7942708333333  11.5696022727273 15.7161458333333  C 11.4928977272727 15.6380208333333  11.4545454545455 15.5381944444444  11.4545454545455 15.4166666666667  L 11.4545454545455 7.91666666666667  C 11.4545454545455 7.79513888888889  11.4928977272727 7.6953125  11.5696022727273 7.6171875  C 11.6463068181818 7.5390625  11.7443181818182 7.5  11.8636363636364 7.5  L 12.6818181818182 7.5  C 12.8011363636364 7.5  12.8991477272727 7.5390625  12.9758522727273 7.6171875  Z M 14.6377840909091 17.87109375  C 14.6974431818182 17.7105034722222  14.7272727272727 17.5347222222222  14.7272727272727 17.34375  L 14.7272727272727 5  L 3.27272727272727 5  L 3.27272727272727 17.34375  C 3.27272727272727 17.5347222222222  3.30255681818182 17.7105034722222  3.36221590909091 17.87109375  C 3.421875 18.0316840277778  3.48366477272727 18.1488715277778  3.54758522727273 18.22265625  C 3.61150568181818 18.2964409722222  3.65625 18.3333333333333  3.68181818181818 18  L 14.3181818181818 18  C 14.34375 18.3333333333333  14.3884943181818 18.2964409722222  14.4524147727273 18.22265625  C 14.5163352272727 18.1488715277778  14.578125 18.0316840277778  14.6377840909091 17.87109375  Z M 6.76278409090909 1.80989583333333  L 6.13636363636364 3.33333333333333  L 11.8636363636364 3.33333333333333  L 11.25 1.80989583333333  C 11.1903409090909 1.73177083333333  11.1178977272727 1.68402777777778  11.0326704545455 1.66666666666667  L 6.98011363636364 1.66666666666667  C 6.89488636363636 1.68402777777778  6.82244318181818 1.73177083333333  6.76278409090909 1.80989583333333  Z M 17.8849431818182 3.45052083333333  C 17.9616477272727 3.52864583333333  18 3.62847222222222  18 3.75  L 18 4.58333333333333  C 18 4.70486111111111  17.9616477272727 4.8046875  17.8849431818182 4.8828125  C 17.8082386363636 4.9609375  17.7102272727273 5  17.5909090909091 5  L 16.3636363636364 5  L 16.3636363636364 17.34375  C 16.3636363636364 18.0642361111111  16.1633522727273 18.6870659722222  15.7627840909091 19.2122395833333  C 15.3622159090909 19.7374131944444  14.8806818181818 20  14.3181818181818 20  L 3.68181818181818 20  C 3.11931818181818 20  2.63778409090909 19.74609375  2.23721590909091 19.23828125  C 1.83664772727273 18.73046875  1.63636363636364 18.1163194444444  1.63636363636364 17.3958333333333  L 1.63636363636364 5  L 0.409090909090909 5  C 0.289772727272727 5  0.191761363636364 4.9609375  0.115056818181818 4.8828125  C 0.0383522727272727 4.8046875  0 4.70486111111111  0 4.58333333333333  L 0 3.75  C 0 3.62847222222222  0.0383522727272727 3.52864583333333  0.115056818181818 3.45052083333333  C 0.191761363636364 3.37239583333333  0.289772727272727 3.33333333333333  0.409090909090909 3.33333333333333  L 4.359375 3.33333333333333  L 5.25426136363636 1.15885416666667  C 5.38210227272727 0.837673611111109  5.61221590909091 0.564236111111109  5.94460227272727 0.338541666666667  C 6.27698863636364 0.112847222222221  6.61363636363636 0  6.95454545454545 0  L 11.0454545454545 0  C 11.3863636363636 0  11.7230113636364 0.112847222222221  12.0553977272727 0.338541666666667  C 12.3877840909091 0.564236111111109  12.6178977272727 0.837673611111109  12.7457386363636 1.15885416666667  L 13.640625 3.33333333333333  L 17.5909090909091 3.33333333333333  C 17.7102272727273 3.33333333333333  17.8082386363636 3.37239583333333  17.8849431818182 3.45052083333333  Z " fill-rule="nonzero" fill="#ffffff" stroke="none" transform="matrix(1 0 0 1 298 85 )" />
  </g>
</svg>